<?xml version="1.0" encoding="UTF-8"?>
<?xml-stylesheet type="text/css" href="../style.css" ?>
<svg id="svg8" width="256" height="256" version="1.1" viewBox="0 0 67.73 67.73" xmlns="http://www.w3.org/2000/svg" xmlns:cc="http://creativecommons.org/ns#" xmlns:dc="http://purl.org/dc/elements/1.1/" xmlns:rdf="http://www.w3.org/1999/02/22-rdf-syntax-ns#" xmlns:xlink="http://www.w3.org/1999/xlink">
 <title id="title32">AlekSIS icon</title>
 <defs id="defs2">
  <linearGradient id="shadow-gradient" x1="45.71" x2="271.4" y1="55.29" y2="281" gradientTransform="scale(.2646)" gradientUnits="userSpaceOnUse">
   <stop id="stop2521" stop-color="#1a1a1a" offset="0"/>
   <stop id="stop2523" stop-color="#1a1a1a" stop-opacity="0" offset="1"/>
  </linearGradient>
 </defs>
 <metadata id="metadata5">
  <rdf:RDF>
   <cc:Work rdf:about="">
    <dc:format>image/svg+xml</dc:format>
    <dc:type rdf:resource="http://purl.org/dc/dcmitype/StillImage"/>
    <dc:title>AlekSIS icon</dc:title>
    <cc:license rdf:resource="http://creativecommons.org/licenses/by-sa/4.0/"/>
    <dc:date>2020-02-27</dc:date>
    <dc:creator>
     <cc:Agent>
      <dc:title>Dominik George</dc:title>
     </cc:Agent>
    </dc:creator>
    <dc:contributor>
     <cc:Agent>
      <dc:title>Julian Leucker</dc:title>
     </cc:Agent>
    </dc:contributor>
   </cc:Work>
   <cc:License rdf:about="http://creativecommons.org/licenses/by-sa/4.0/">
    <cc:permits rdf:resource="http://creativecommons.org/ns#Reproduction"/>
    <cc:permits rdf:resource="http://creativecommons.org/ns#Distribution"/>
    <cc:requires rdf:resource="http://creativecommons.org/ns#Notice"/>
    <cc:requires rdf:resource="http://creativecommons.org/ns#Attribution"/>
    <cc:permits rdf:resource="http://creativecommons.org/ns#DerivativeWorks"/>
    <cc:requires rdf:resource="http://creativecommons.org/ns#ShareAlike"/>
   </cc:License>
  </rdf:RDF>
 </metadata>
 <g id="background-with-glow">
  <rect id="background" x="-8.882e-16" y="-1.792e-5" width="67.73" height="67.73" rx="3.307" ry="3.307" fill="#0d5eaf" stroke-width=".4104"/>
  <path id="glow" transform="scale(.2646)" d="m9.955 0.2441c-5.702 1.165-9.967 6.188-9.967 12.24v52.31a234.1 86.79 0 0 0 188.9 35.71 234.1 86.79 0 0 0 67.1-3.717v-84.29c1e-5 -6.057-4.264-11.08-9.967-12.24h-236.1z" fill="#fff" opacity=".2" stroke-width="1.094"/>
 </g>
 <g id="widgets-with-shadow">
  <path id="shadow" d="m20.03 5.766c-4.721 4.721-9.442 9.442-14.16 14.16 1.796 1.897 3.854 3.603 5.426 5.667 0.1242 0.3897-0.01105 0.968-0.832 1.425-0.7532 0.2232-2.1-1.286-2.52 0.2321-0.1069 0.6034-0.05123 0.1375-0.02532 0.9059 3.564 5.679 9.804 10.85 14.21 15.27-0.8669 0.0095-4.911-4.041-5.856-5.007-0.2618-0.4521-1.453-0.7513-2.324-0.6093h-8.026c-0.01311 6.554 0.1301 13.11-0.3687 19.65l-0.2607 4.97 5.558 5.289h53.57c2.867 0.06625 3.575-2.965 3.307-5.243v-41.5c-3.659-3.582-7.174-7.322-10.92-10.8-3.102-0.3156-4.37-5.144-7.608-3.879-1.547 0.9218-0.1679 3.602-2.799 2.823-3.48 0.5855-5.579 4.177-5.162 7.527-0.03836 1.326 0.07551 2.82-0.05478 4.046-0.6508-0.662-1.68-1.993-3.046-0.8686-1.118 1.379 0.193 2.372 0.8686 3.045-0.8328-0.2938-1.223 1.044-1.724 0.1452-5.75-5.752-11.5-11.5-17.25-17.25zm29.67 1.256c-0.2634 0.1478-0.8891 1.015 0 0zm0.5963 0.6444c-0.2315 0.1421-0.8 0.903 0 0zm0.5912 0.6434c-0.1444 0.09144-0.5981 0.6317 0 0zm-39.74 16.9c0.09831 0.09045 0.0043 0.07117 0 0zm0.06201 0.1085c0.066 0.09045-0.03194 0.06729 0 0zm0.03876 0.09922c0.07054 0.04997-0.04277 0.04621 0 0zm0.02791 0.08423c0.07183 0.04845-0.04365 0.04477 0 0zm-0.0124 0.8237c-0.05345 0.2058-0.1598 0.1936 0 0zm-2.419 0.2584c0.07295-0.0541 0.06453 0.1011 0 0zm2.249 0.01963c-0.499 0.4735-0.2852 0.229 0 0zm-2.593 0.0031c-0.503 0.4971-0.4638 0.3045 0 0zm0.4558 0.0181c0.1607 0.01 0.1728 0.08869 0 0zm0.1804 0.06304c0.1286-0.0042 0.04839 0.06848 0 0zm0.2088 0.09715c0.1287-0.0042 0.04837 0.06848 0 0zm0.1111 0.05633c0.1281-0.0066 0.04954 0.06994 0 0zm1.306 0.04186c-0.1308 0.1185-0.1229 0.02957 0 0zm-1.127 0.02222c0.0485-0.02051 0.09497 0.1239 0 0zm0.09818 0.04186c0.04464-0.03237 0.06742 0.09416 0 0zm0.9085 0.0067c-0.1458 0.09055-0.05263-0.02009 0 0zm-0.8253 0.02066c0.0439-0.03108 0.06944 0.09476 0 0zm-1.71 0.02016c0.02099 0.03239-0.07924 0.04179 0 0zm1.795 0.0062c0.07377-0.0555 0.06519 0.1019 0 0zm0.3245 0.04237c0.207 0.0266-0.2192-0.0017 0 0zm-2.195 0.077c-0.07363 0.3596-0.06687 0.0251 0 0zm-0.06201 1.173c0.05948 0.08709 0.0056 0.1436 0 0zm0.05116 0.185c0.07243 0.04949-0.04438 0.04504 0 0zm0.0279 0.08372c0.07181 0.04869-0.0437 0.04448 0 0zm0.0279 0.0832c0.07181 0.04869-0.0437 0.04448 0 0zm0.04186 0.09664c0.06925 0.05049-0.04249 0.04559 0 0zm0.03049 0.08165c0.06618 0.08965-0.03086 0.06821 0 0zm0.05581 0.1111c0.1383 0.1326-0.04495 0.05398 0 0zm0.03359 0.0987c0.09536 0.1022-0.0075 0.06881 0 0zm0.1132 0.2253c0.1016 0.1015 0.01371 0.09328 0 0zm0.08423 0.1406c0.1207 0.1268 0.00912 0.08346 0 0zm0.09664 0.1514c0.1034 0.1021 0.01061 0.09298 0 0zm0.09715 0.153c0.17 0.1685 0.07031 0.1722 0 0zm0.1442 0.1979c0.1174 0.06846-0.01043 0.04255 0 0zm0.06253 0.09353c0.08364 0.02477-0.01677 0.04324 0 0zm0.07183 0.09767c0.1722 0.1699 0.05905 0.1438 0 0zm0.1788 0.2331c0.1452 0.1052 7.755e-4 0.04303 0 0zm0.1111 0.139c0.2089 0.1672 0.01349 0.05554 0 0zm0.3896 0.3896c0.0829 0.07356 0.1053 0.1388 0 0zm0.1752 0.1478c0.00963-5.74e-4 0.011 0.03021 0 0zm0.1003 0.1369c0.0666 0.03835 0.04556 0.05297 0 0zm0.3514 0.3426c0.08211 0.07098 0.06899 0.09986 0 0zm0.1752 0.1473c0.0068 0.0049 0.0055 0.01399 0 0zm0.09664 0.1344c0.0989 0.05922 0.02121 0.03537 0 0zm0.3524 0.3421c0.07585 0.06605 0.07005 0.1024 0 0zm0.1736 0.1468c0.0034 9.5e-5 0.0034 0.01081 0 0zm0.447 0.4739c0.0674 0.05816 0.07025 0.1026 0 0zm3.894 5.168c0.105 0.01049-0.06609 0.03722 0 0zm0.09302 0.02376c0.2117 0.05058 0.0289 0.06533 0 0zm0.1204 0.05064c0.1815 0.01869 0.1078 0.08251 0 0zm0.1514 0.05323c0.1352 0.04226 0.02186 0.06507 0 0zm0.6232 0.4935c0.09869 0.1099 0.05244 0.1515 0 0zm4.929 4.929c0.09987 0.1094 0.05206 0.1495 0 0zm0.894 0.01963c0.02893 0.02196-0.1033 0.04957 0 0zm-0.1173 0.07958c-0.1376 0.1246-0.1298 0.02426 0 0zm-0.1741 0.09922c-0.1144 0.1087-0.2726 0.1042 0 0z" fill="url(#shadow-gradient)" opacity=".3" stroke-width=".05441"/>
  <g id="widgets" transform="translate(0 -229.3)" fill="#fff">
   <path id="puzzle-ll" d="m37.04 278.3c-0.05222-0.5016-0.1689-1.053-0.3104-1.49-0.1117-0.3352-0.4072-0.9684-0.442-0.946-0.01238 0.0102-0.0322 3e-3 -0.04219-0.0127-0.0099-0.0204-0.0075-0.0229 0.0099-0.0127 0.04458 0.028 0.03723-8e-3 -0.02234-0.0994-0.02738-0.0483-0.05958-0.0785-0.07205-0.0708-0.0099 8e-3 -0.03472-8e-3 -0.05222-0.0331-0.0322-0.0382-0.02976-0.0407 0.0099-8e-3 0.06943 0.0558 0.04971-6e-3 -0.03472-0.0969-0.04218-0.0483-0.06696-0.0687-0.05706-0.0509 0.01238 0.0255 0 0.023-0.03472-0.0102-0.06219-0.0532-0.07707-0.0887-0.01744-0.0407 0.05957 0.0506 0.04221-0.0127-0.01743-0.0649-0.03472-0.0306-0.04458-0.0357-0.0322-0.0102 0.0099 0.0203-0.07456-0.0531-0.1887-0.1613-0.1142-0.1093-0.2061-0.2036-0.2011-0.2086 0.0028-8e-3 0.08947 0.0683 0.1912 0.1713 0.1018 0.1018 0.1862 0.1738 0.1862 0.1565 0-0.0153-0.07706-0.0993-0.1713-0.1887-0.149-0.139-0.2061-0.1738-0.4271-0.2608-0.7897-0.3079-1.234-0.2036-1.495 0.3476-0.06471 0.1366-0.3352 0.8393-0.3576 0.9263-0.0099 0.0432-0.0075 0.0457 0.0174 0.0128 0.02486-0.0331 0.02737-0.0331 0.01741 0-0.0047 0.0203-0.02486 0.0382-0.04458 0.0382-0.01743 0-0.03723 0.0229-0.04221 0.0509-0.0075 0.0432-0.0028 0.0457 0.01973 0.0127 0.02486-0.0331 0.02737-0.0331 0.0174 0-0.0047 0.0203-0.02234 0.0383-0.03985 0.0383-0.01499 0-0.05706 0.0509-0.08947 0.1092-0.07456 0.1316-0.0793 0.159-0.0099 0.0759l0.05222-0.0623-0.03472 0.0623c-0.02234 0.0356-0.04719 0.0622-0.05957 0.0622-0.03733 0-0.08443 0.0407-0.08443 0.0663 0 0.0153 0.01742 0.0128 0.04458-8e-3 0.02234-0.0178 0.01499-3e-3 -0.01741 0.0357-0.06692 0.0734-0.1018 0.0912-0.04971 0.0255 0.01744-0.0255 0.0028-0.0178-0.03472 0.0153-0.07205 0.0645-0.08695 0.0912-0.03472 0.0623 0.01499-0.0102 0.0028 0.0128-0.02986 0.0484-0.03472 0.0382-0.06694 0.0667-0.07205 0.0667-0.0075 0 0.0075-0.0229 0.0322-0.0507 0.06219-0.0668 0.02737-0.0627-0.06944 0.0102-0.226 0.1688-0.4966 0.2458-0.8741 0.2483-0.2682 0-0.3973-0.028-0.668-0.1465-0.03733-0.0178-0.04219-0.0127-0.02738 0.0153 0.01247 0.0203 0.01247 0.028-0.0028 0.0153-0.01238-0.0127-0.02234-0.0357-0.02234-0.0509 0-0.0127-0.01499-0.0306-0.03472-0.0382-0.02234-8e-3 -0.02737 0-0.01499 0.0203 0.01499 0.023 0.0099 0.028-0.0099 0.0153-0.01745-0.0127-0.02486-0.028-0.01745-0.0357 0.01745-0.0178-0.0322-0.0785-0.0647-0.0785-0.01499 0-0.0099 0.0203 0.0075 0.0457 0.01744 0.0229 0.0028 0.0153-0.03472-0.0178-0.07456-0.0665-0.09177-0.1018-0.02234-0.0509 0.03472 0.028 0.03472 0.0255-0.0047-0.0203-0.02486-0.0331-0.05706-0.0509-0.06943-0.0432-0.0099 8e-3 -0.01744 0-0.01499-0.0203 0.0047-0.0178-0.0047-0.0306-0.02234-0.028-0.01499 3e-3 -0.04219-0.0127-0.06219-0.0383-0.02979-0.0382-0.02737-0.0407 0.01247-8e-3 0.02234 0.0178 0.04222 0.0229 0.04222 8e-3 0-0.0306-0.06219-0.0835-0.0793-0.0661-0.0075 8e-3 -0.02746-8e-3 -0.04719-0.0306-0.0322-0.0407-0.02975-0.0432 0.0099-0.0102 0.05222 0.0432 0.05453 0.0204 0.0028-0.0605-0.02234-0.0356-0.04971-0.0581-0.05957-0.0509-0.01247 8e-3 -0.02981 0-0.03985-0.0153-0.0099-0.0203-0.0075-0.023 0.0099-0.0127 0.04219 0.0255 0.03723 3e-3 -0.02234-0.1168-0.0793-0.154-0.1664-0.4221-0.2086-0.6456-0.0322-0.1712-0.03723-0.7797-0.03723-4.658v-4.46l-1.271 5e-3c-0.7003 5e-3 -2.731 0.0102-4.514 0.0153l-3.241 5e-3 -0.221 0.0666c-0.2582 0.0759-0.6456 0.2582-0.6257 0.2904 0.0075 0.0128-0.0047 0.0382-0.02986 0.0557-0.03723 0.0331-0.03985 0.0305-0.0075-0.0102 0.01741-0.023 0.02234-0.0432 0.0075-0.0432-0.02973 0-0.08443 0.0623-0.06695 0.0784 0.0075 8e-3 -0.0075 0.028-0.02977 0.0484-0.03985 0.0331-0.04217 0.0306-0.0099-0.0102 0.06471-0.0785-0.0075-0.0432-0.1142 0.0618-0.1068 0.1044-0.1465 0.1813-0.06219 0.1168 0.03733-0.028 0.03733-0.028 0.0099 3e-3 -0.01745 0.0203-0.04458 0.0382-0.05967 0.0382-0.01499 0-0.03211 0.0153-0.03985 0.0357-0.0075 0.023 0 0.028 0.01973 0.0153 0.02234-0.0127 0.02746-0.0102 0.01499 0.0102-0.0099 0.0153-0.02738 0.023-0.03985 0.0153-0.0322-0.0203-0.1167 0.1539-0.1614 0.3278-0.05222 0.2036-0.04719 0.5786 0.0099 0.8095 0.0546 0.211 0.1167 0.3476 0.1515 0.3278 0.01247-8e-3 0.02979 0 0.03985 0.0153 0.01247 0.0204 0.0075 0.023-0.01499 0.0102-0.01973-0.0128-0.02737-8e-3 -0.01973 0.0153 0.0075 0.0203 0.02486 0.0356 0.03733 0.0356 0.01499 0 0.03733 0.0102 0.04971 0.023 0.01247 0.0127 0.0075 0.0153-0.0099 5e-3 -0.06943-0.0407-0.02486 0.0305 0.08695 0.1415 0.1142 0.1118 0.1763 0.1515 0.1391 0.0862-0.0099-0.0204-0.0075-0.0255 0.0047-0.0127 0.01247 0.0127 0.02234 0.0356 0.02234 0.0509 0 0.0484 0.365 0.226 0.7449 0.3675 0.1912 0.0708 0.3898 0.1515 0.4395 0.1763 0.1018 0.0506 0.1813 0.0623 0.1192 0.0178-0.0322-0.0229-0.0322-0.0255 0-0.0153 0.01973 6e-3 0.03733 0.023 0.03733 0.0382 0 0.033 0.1589 0.1391 0.1788 0.1217 0.0047-8e-3 -0.02738-0.0357-0.07205-0.0644-0.04459-0.028-0.07205-0.0532-0.06209-0.0532 0.03723 0 0.1664 0.1018 0.1564 0.1217-0.01499 0.023 0.1341 0.1738 0.1664 0.1738 0.01247 0 0.02974 8e-3 0.03733 0.0178 0.0099 0.0102 0.0028 0.0102-0.01247 0-0.04222-0.0255-0.04222-0.0178 0.02234 0.1117 0.07205 0.149 0.08695 0.4495 0.03472 0.6754-0.02224 0.0939-0.08443 0.288-0.1415 0.4296-0.09435 0.2434-0.1142 0.2706-0.3029 0.4619-0.1118 0.1092-0.2012 0.2086-0.1987 0.2185 0.0028 0.0102-0.01973 0.0407-0.04971 0.0641l-0.0546 0.0484 0.04719-0.0551c0.02746-0.0331 0.03733-0.0581 0.02234-0.0581-0.0322 0-0.1117 0.0861-0.09177 0.1043 0.0075 8e-3 -0.02486 0.0407-0.06944 0.069l-0.08192 0.0557 0.07456-0.0647c0.1167-0.1018 0.05706-0.0759-0.1664 0.0688-0.7475 0.4842-1.768 0.7821-2.876 0.8343-0.519 0.0255-0.9063-3e-3 -1.515-0.0993-0.5562-0.0912-0.9064-0.1689-1.242-0.2756-0.2607-0.0835-0.673-0.2557-0.8443-0.3551-0.1242-0.0708-0.1614-0.0785-0.1341-0.0356 0.0099 0.0204 0.0075 0.0255-0.0047 0.0128-0.01247-0.0128-0.02234-0.0331-0.02234-0.0432 0-0.028-0.2359-0.1813-0.2533-0.1664-0.0047 8e-3 0.02976 0.0382 0.07704 0.0669 0.08192 0.0507 0.1316 0.1017 0.05706 0.0605-0.0895-0.0531-0.1664-0.1168-0.1564-0.1292 0.01741-0.0178-0.0322-0.0784-0.0647-0.0784-0.01499 0-0.0099 0.0203 0.0075 0.0457 0.0322 0.0382 0.02982 0.0407-0.0099 8e-3 -0.02234-0.0204-0.03733-0.0407-0.02986-0.0483 0.01746-0.0178-0.03723-0.0785-0.06694-0.0785-0.01499 0-0.0099 0.0203 0.0075 0.0457 0.0322 0.0382 0.02984 0.0407-0.0075 8e-3 -0.02486-0.0178-0.03985-0.0432-0.0322-0.0533 0.0075-0.0127-0.04221-0.0665-0.1092-0.1241-0.2781-0.231-0.4346-0.5041-0.5488-0.9585-0.07456-0.2955-0.06219-0.519 0.03723-0.7648 0.01741-0.0382 0.01247-0.0432-0.01499-0.028-0.01973 0.0127-0.02738 0.0127-0.01499-3e-3 0.01238-0.0127 0.02975-0.023 0.03723-0.023 0.02737 0 0.2408-0.221 0.2408-0.2483 0-0.0255 0.231-0.1614 0.2732-0.1589 0.01499 0-0.03985 0.0356-0.1217 0.0734-0.2011 0.1042-0.1639 0.1117 0.04719 0.0102 0.09682-0.0483 0.3302-0.1415 0.5214-0.2135 0.4768-0.1763 0.8518-0.3675 0.8219-0.4172-0.0075-0.0102 0.03985-0.0687 0.1018-0.1291 0.06209-0.0605 0.1043-0.0912 0.09432-0.0708-0.01973 0.0331-0.01746 0.0331 0.01973 3e-3 0.04719-0.0383 0.05706-0.0887 0.01247-0.0623-0.01744 0.0102-0.01973 8e-3 -0.0099-0.0127 0.0099-0.0153 0.02746-0.023 0.03985-0.0153 0.03733 0.023 0.149-0.2284 0.1912-0.4196 0.0545-0.2608 0.04971-0.6133-0.01499-0.8095-0.05957-0.1862-0.1564-0.3626-0.1937-0.3551-0.01499 3e-3 -0.04719-0.0204-0.07205-0.0508l-0.04719-0.0553 0.05706 0.0483c0.09435 0.0784 0.05957 0.0102-0.04971-0.1018-0.1093-0.1118-0.1887-0.149-0.1043-0.0509l0.04719 0.0553-0.05454-0.0483c-0.02983-0.0255-0.05222-0.0581-0.04971-0.0688 0.0028-0.0153-0.0099-0.0331-0.02983-0.0407-0.02234-8e-3 -0.02738 0-0.01499 0.023 0.01247 0.0204 0.0099 0.028-0.0028 0.0153-0.01238-0.0127-0.02234-0.0356-0.02234-0.0507 0-0.0127-0.01499-0.0306-0.03472-0.0383-0.02234-8e-3 -0.02738 0-0.01499 0.0203 0.01247 0.023 0.0099 0.0281-0.0099 0.0153-0.01499-0.0102-0.02224-0.0306-0.01238-0.0432 0.01973-0.0331-0.2582-0.1564-0.5214-0.2335l-0.2183-0.0624h-9.257v25.25h25.28v-4.639c0-4.616 0-4.641 0.05222-4.795 0.02737-0.086 0.07704-0.2186 0.1092-0.293 0.03472-0.0734 0.05456-0.149 0.04458-0.1639-0.0075-0.0127-0.0028-0.0178 0.0099-0.0102 0.01499 0.0102 0.04458-0.0102 0.06696-0.0457 0.05706-0.0861 0.04719-0.1118-0.01247-0.0381-0.04971 0.0581-0.04971 0.0581-0.01973 5e-3 0.01973-0.0331 0.04719-0.0583 0.05957-0.0605 0.03472 0 0.08695-0.0457 0.08695-0.0734 0-0.0153-0.01973-0.0102-0.04219 8e-3 -0.03733 0.028-0.03733 0.0255 0.0028-0.0204 0.02486-0.0331 0.05461-0.0509 0.06471-0.0457 0.0099 6e-3 0.03733-0.0102 0.06219-0.0382s0.03723-0.0507 0.02486-0.0507c-0.02979 0 0.03733-0.0708 0.1217-0.1292 0.06209-0.0408 0.05706-0.0331-0.02234 0.0432l-0.09936 0.0887 0.1192-0.0759c0.1812-0.1192 0.3601-0.1937 0.5487-0.226 0.2906-0.0507 0.7276 0.0102 0.9635 0.1291 0.1117 0.0576 0.1465 0.0624 0.0793 8e-3 -0.04459-0.0356-0.04459-0.0383 0.0099-0.0102 0.0322 0.0178 0.05222 0.0357 0.04458 0.0432-0.01743 0.0204 0.0322 0.081 0.06471 0.081 0.01499 0 0.0099-0.0203-0.0075-0.0432-0.0322-0.0407-0.02986-0.0432 0.0075-0.0102 0.02486 0.0178 0.03985 0.0432 0.0322 0.0507-0.01247 0.0229 0.1962 0.2334 0.2235 0.226 0.0099-3e-3 0.02486 6e-3 0.0322 0.0153 0.0099 0.0102 0.0028 0.0102-0.01247 0-0.04458-0.0255-0.03985 5e-3 0.01499 0.0784 0.08704 0.1267 0.221 0.4148 0.3477 0.7648 0.149 0.3998 0.2756 0.668 0.3178 0.668 0.01499 0 0.03733 0.0102 0.04971 0.0229 0.01239 0.0127 0.0075 0.0153-0.0099 5e-3 -0.04719-0.028-0.03985 0.023 0.0099 0.0617 0.02234 0.0205 0.04459 0.0331 0.04971 0.0306 0.0028-5e-3 0.0047-3e-3 0.0028 0-0.0047 6e-3 0.0075 0.028 0.02737 0.0507 0.03733 0.0484 0.08939 0.0581 0.06209 0.0127-0.0099-0.0178-0.0075-0.0205 0.01239-0.0102 0.01499 0.0102 0.02234 0.0306 0.01247 0.0432-0.0075 0.0127 0.03985 0.0483 0.1068 0.0759 0.2359 0.1068 0.586 0.0667 1.068-0.1241 0.1962-0.0734 0.2682-0.1192 0.4072-0.2483 0.09432-0.086 0.1713-0.1713 0.1713-0.1863 0-0.0153-0.07456 0.0457-0.1664 0.1366-0.154 0.1489-0.3179 0.2632-0.3452 0.2359-0.0075-5e-3 0.02486-0.0255 0.06943-0.0457 0.04458-0.0178 0.1689-0.1143 0.2757-0.2186 0.1043-0.1018 0.1912-0.1763 0.1912-0.1639 0 0.0102 0.02234 0 0.04971-0.0255 0.06219-0.0556 0.06692-0.1068 0.0075-0.0604-0.03985 0.0331-0.04218 0.0305-0.0099-0.0102 0.01973-0.0229 0.03985-0.0382 0.04719-0.0305 0.01742 0.0178 0.0794-0.0382 0.0794-0.0663 0-0.0153-0.01973-0.0102-0.04217 8e-3 -0.03985 0.0281-0.03985 0.0281-0.01247-3e-3 0.01744-0.0203 0.04458-0.0383 0.05957-0.0383s0.0322-0.0153 0.03985-0.0356c0.0075-0.0229 0-0.028-0.02234-0.0153-0.01973 0.0128-0.02738 0.0102-0.01499-3e-3 0.01247-0.0127 0.03472-0.0229 0.04719-0.0229 0.01499 0 0.0322-0.0153 0.03985-0.0356 0.0075-0.023 0-0.0281-0.01973-0.0153-0.02234 0.0127-0.02737 0.0102-0.01499-0.0102 0.0099-0.0153 0.02746-0.023 0.03985-0.0153 0.02737 0.0178 0.2086-0.3079 0.3526-0.6332 0.2086-0.4744 0.3203-0.8816 0.4594-1.689 0.0793-0.4743 0.08695-0.5512 0.09432-1.13 0.0028-0.3402 0.0028-0.6655-0.0028-0.7201zm-0.02737 0.3551c-0.0047-0.0381-0.0047-0.1043 0-0.149 0.0047-0.0457 0.0099-0.0153 0.0099 0.0664 0 0.081-0.0047 0.1192-0.0099 0.081zm0 0.6953c-0.0047-0.0382-0.0047-0.1043 0-0.149 0.0047-0.0457 0.0099-0.0153 0.0099 0.0667 0 0.081-0.0047 0.1192-0.0099 0.081zm-0.02486-0.9808c-0.0047-0.0331-0.0047-0.081 0-0.1117 0.0047-0.0331 0.0099-8e-3 0.0099 0.0553 0 0.0617-0.0047 0.0861-0.0099 0.0581zm0 1.204c-0.0047-0.0255-0.0047-0.0684 0-0.0993 0.0047-0.0331 0.0099-0.0127 0.0099 0.0432 0.0028 0.0551-0.0028 0.0785-0.0099 0.0576zm-0.03472-1.547c-0.0099-0.0553-0.01973-0.1266-0.01744-0.1614 0.0028-0.0861 0.03723 0.0835 0.03985 0.1862 0 0.0623-0.0047 0.0581-0.02234-0.0255zm0.0028 1.862c-0.01746 0.0661-0.01973 0.0661-0.01973 0.0128 0-0.0356 0.0099-0.0939 0.01973-0.1366 0.01746-0.066 0.01973-0.066 0.01973-0.0127 0 0.0356-0.0099 0.0968-0.01973 0.1366zm-0.04971-2.173c-0.0099-0.0356-0.01973-0.0835-0.01973-0.1118 0-0.0407 0.0047-0.0382 0.01973 0.0128 0.0099 0.0356 0.01973 0.0835 0.01973 0.1117 0 0.0407-0.0047 0.0382-0.01973-0.0127zm0.0099 2.376c-0.0075-8e-3 -0.0099-0.0305-0.0028-0.0484 0.0075-0.0203 0.01499-0.0127 0.01499 0.0153 0.0028 0.028-0.0047 0.0432-0.01247 0.0331zm-0.02737 0.139c-0.0047-0.0178-0.0047-0.0531 0-0.0734 0.0075-0.0255 0.01238-0.0102 0.01238 0.0305 0 0.0432-0.0047 0.0605-0.01238 0.0457zm-0.0322-2.764c-0.02737-0.0835-0.02737-0.149 0-0.086 0.01238 0.028 0.01973 0.0708 0.01973 0.0994 0 0.0407-0.0047 0.0382-0.01973-0.0127zm0 3.017c-0.01743 0.0667-0.01973 0.0667-0.01973 0.0127 0-0.0356 0.0099-0.0939 0.01973-0.1366 0.01745-0.0663 0.01973-0.0663 0.01973-0.0128 0 0.0357-0.0099 0.0968-0.01973 0.1366zm-0.04971-3.24c-0.01238-0.0204-0.02234-0.06-0.02234-0.0861 0.0028-0.0408 0.0047-0.0408 0.02234 0.0127 0.02737 0.0862 0.02737 0.1192 0 0.0734zm0 3.489c-0.01238 0.0331-0.02234 0.0357-0.02234 0.0127 0-0.0203 0.0099-0.06 0.02234-0.086 0.01247-0.0331 0.02234-0.0356 0.02234-0.0127 0 0.0203-0.0099 0.0605-0.02234 0.0861zm-0.04971 0.2235c-0.02738 0.0621-0.02738-3e-3 0-0.0861 0.01499-0.0507 0.01973-0.0531 0.01973-0.0127 0 0.028-0.0075 0.0708-0.01973 0.0993zm-0.04971-4.06c-0.01247-0.0203-0.02234-0.055-0.02234-0.0734 0-0.0255 0.0075-0.0204 0.02234 0.0127 0.02978 0.0659 0.02978 0.1068 0 0.0617zm0 4.259c-0.01247 0.0331-0.02234 0.0356-0.02234 0.0127 0-0.0204 0.0099-0.0605 0.02234-0.086 0.01239-0.0331 0.02224-0.0357 0.02224-0.0127 0 0.0204-0.0099 0.0605-0.02224 0.0861zm-0.04971-4.408c-0.01239-0.0204-0.02486-0.0484-0.02486-0.0623 0-0.0127 0.01247-8e-3 0.02486 0.0127 0.01247 0.0204 0.02486 0.0507 0.02486 0.0623 0 0.0153-0.01247 8e-3 -0.02486-0.0128zm-0.04971-0.149c-0.01247-0.0203-0.02486-0.0483-0.02486-0.0617 0-0.0127 0.01239-8e-3 0.02486 0.0127 0.01247 0.0204 0.02486 0.0507 0.02486 0.0622 0 0.0153-0.01238 8e-3 -0.02486-0.0128zm0 4.867c-0.02988 0.0457-0.02988 5e-3 0-0.0624 0.01499-0.0331 0.02234-0.0381 0.02234-0.0127 0 0.0204-0.0099 0.0556-0.02234 0.0734zm-0.04971 0.1242c-0.01247 0.0203-0.02486 0.028-0.02486 0.0127 0-0.0127 0.01239-0.0432 0.02486-0.0623 0.01247-0.0204 0.02486-0.0255 0.02486-0.0127 0 0.0153-0.01247 0.0432-0.02486 0.0618zm-0.04973 0.1489c-0.01238 0.0203-0.02486 0.028-0.02486 0.0127 0-0.0127 0.01247-0.0432 0.02486-0.062 0.01247-0.0204 0.02486-0.0255 0.02486-0.0127 0 0.0153-0.01247 0.0432-0.02486 0.0616zm-0.03472-5.465c-0.02225-0.0255-0.1391-0.2707-0.1266-0.2707 0.01499 0 0.1341 0.226 0.1366 0.2583 0 0.0127-0.0047 0.0178-0.0099 0.0127zm-0.03472 5.577c-0.0075-8e-3 0-0.028 0.01747-0.0457 0.02486-0.023 0.02737-0.0204 0.01239 0.0153-0.0075 0.0255-0.02224 0.0383-0.02984 0.0306zm-0.04971 0.1242c-0.0075-8e-3 0-0.028 0.01742-0.0457 0.02486-0.023 0.02737-0.0203 0.01247 0.0153-0.0075 0.0255-0.02234 0.0382-0.02988 0.0306zm-0.04971 0.0993c-0.0075-8e-3 0-0.028 0.01741-0.0457 0.02486-0.023 0.02738-0.0203 0.01247 0.0153-0.0075 0.0255-0.02234 0.0382-0.02978 0.0306zm-0.04971 0.0993c-0.0075-8e-3 0-0.028 0.01744-0.0457 0.02486-0.023 0.02737-0.0204 0.01238 0.0153-0.0075 0.0255-0.02234 0.0382-0.02986 0.0306zm-0.06692-6.369c-0.0047 0-0.02234-0.0255-0.03723-0.0553-0.02737-0.0553-0.02486-0.0553 0.0099-0.0102 0.04221 0.0531 0.04719 0.0646 0.02738 0.0646zm-0.05222 6.58c-0.0047 0 0-0.023 0.01499-0.0507 0.01499-0.028 0.0322-0.0508 0.03985-0.0508 0.0047 0 0 0.023-0.01499 0.0508-0.01499 0.028-0.0322 0.0507-0.03985 0.0507zm-0.7971-7.447c-0.04971-0.0305-0.03472-0.0356 0.02989-0.0128 0.02234 0.0102 0.03472 0.023 0.02737 0.0281-0.0047 8e-3 -0.0322 0-0.05706-0.0153zm-0.1465-0.0553c-0.03985-0.0153-0.144-0.0507-0.2334-0.0734-0.08949-0.0255-0.1366-0.0457-0.1068-0.0457 0.02738-3e-3 0.1341 0.0255 0.2359 0.0605 0.09932 0.0356 0.1862 0.0619 0.1912 0.0619 0.0047 0 0.0047 5e-3 -0.0028 0.0127-0.0075 8e-3 -0.04459 0-0.08443-0.0153zm-0.1589 8.492c-0.04217 0 0.08443-0.0574 0.1763-0.081 0.0322-8e-3 0.01499 8e-3 -0.03985 0.0331-0.05452 0.028-0.1167 0.0508-0.1366 0.0508zm-0.1788 0.0457c-0.01973-8e-3 -0.01247-0.0153 0.01499-0.0153 0.02738-3e-3 0.04217 5e-3 0.0322 0.0127-0.0075 8e-3 -0.0298 0.0102-0.04719 3e-3zm-0.3675 0.0553c-0.1366 0-0.2384-0.0127-0.2856-0.0356-0.05706-0.0281-0.05957-0.0331-0.01247-0.0178 0.03481 0.0102 0.1887 0.0178 0.3427 0.0178 0.1539 0 0.2558 8e-3 0.2235 0.0153-0.0322 0.0102-0.1515 0.0178-0.2682 0.0204zm0.2059-8.721c-0.02486-8e-3 -0.0099-0.0127 0.02988-0.0127 0.04214 0 0.05957 5e-3 0.04458 0.0127-0.01742 5e-3 -0.05222 5e-3 -0.07456 0zm-0.3799 0.0178c-0.07456 0.0128-0.0793 0.0128-0.02737-0.0102 0.03472-0.0153 0.1291-0.0331 0.2111-0.0381 0.1515-0.0102 0.1515-0.0102 0.02737 0.0102-0.06694 0.0128-0.1639 0.028-0.2111 0.0382zm-0.36 0.2458c-0.03723 0.0457-0.05452 0.0581-0.03985 0.0281 0.02738-0.0553 0.2136-0.2334 0.2459-0.2334 0.0099 0-0.01745 0.0306-0.06219 0.0647-0.04458 0.0331-0.1092 0.0968-0.144 0.1415zm-0.1266 0.1912c-0.0047 0 0-0.023 0.01499-0.0507 0.01499-0.028 0.0322-0.0507 0.03985-0.0507 0.0047 0 0 0.023-0.01499 0.0507-0.01499 0.028-0.0322 0.0507-0.03985 0.0507zm0.0028 7.921c-0.0047 0-0.02234-0.0255-0.03723-0.0552-0.02738-0.0551-0.02486-0.0551 0.0099-0.0102 0.04219 0.0533 0.04719 0.0639 0.02738 0.0639zm-0.03723-7.822c-0.01238 0.0203-0.02486 0.028-0.02486 0.0128 0-0.0128 0.01247-0.0432 0.02486-0.0616 0.01247-0.0203 0.02486-0.0255 0.02486-0.0128 0 0.0153-0.01238 0.0432-0.02486 0.0625zm-0.07456 7.623c-0.02738-0.0483-0.04719-0.0969-0.04719-0.1117 0-0.0127 0.01973 0.0153 0.04719 0.0623 0.02738 0.0483 0.0472 0.0993 0.0472 0.1118 0 0.0153-0.01973-0.0153-0.0472-0.0629zm-0.02486-7.375c-0.01238 0.0203-0.02486 0.028-0.02486 0.0127 0-0.0127 0.01247-0.0432 0.02486-0.0623 0.01247-0.0203 0.02486-0.0255 0.02486-0.0127 0 0.0153-0.01247 0.0432-0.02486 0.0618zm-0.04971 0.149c-0.02988 0.0457-0.02988 5e-3 0-0.0619 0.01499-0.0331 0.02234-0.0383 0.02234-0.0127 0 0.0204-0.0099 0.0557-0.02234 0.0734zm0 7.052c-0.01238-0.0204-0.02486-0.0484-0.02486-0.0616 0-0.0127 0.01247-8e-3 0.02486 0.0127 0.01247 0.0203 0.02486 0.0509 0.02486 0.0618 0 0.0153-0.01247 8e-3 -0.02486-0.0127zm-0.04969-6.928c-0.01239 0.0203-0.02486 0.028-0.02486 0.0127 0-0.0127 0.01247-0.0432 0.02486-0.0619 0.01247-0.0204 0.02486-0.0255 0.02486-0.0128 0 0.0153-0.01238 0.0432-0.02486 0.062zm-0.04971 0.1242c-0.01247 0.0204-0.02486 0.028-0.02486 0.0127 0-0.0127 0.01239-0.0432 0.02486-0.0623 0.01247-0.0204 0.02486-0.0255 0.02486-0.0127 0 0.0153-0.01238 0.0432-0.02486 0.0616zm0 6.531c-0.01247-0.0204-0.02486-0.0484-0.02486-0.0622 0-0.0127 0.01239-8e-3 0.02486 0.0127 0.01247 0.0203 0.02486 0.0509 0.02486 0.0625 0 0.0153-0.01238 8e-3 -0.02486-0.0128zm-0.04971-6.407c-0.01247 0.0205-0.02486 0.0281-0.02486 0.0127 0-0.0127 0.01239-0.0432 0.02486-0.0623 0.01247-0.0204 0.02486-0.0255 0.02486-0.0127 0 0.0153-0.01247 0.0432-0.02486 0.0623zm0 6.258c-0.01247-0.0204-0.02486-0.0484-0.02486-0.0625 0-0.0127 0.01239-8e-3 0.02486 0.0127 0.01247 0.0203 0.02486 0.0507 0.02486 0.0622 0 0.0153-0.01247 8e-3 -0.02486-0.0127zm-0.08443-0.1987c-0.0047 0-0.01499-0.0229-0.02234-0.0509-0.0075-0.028-0.0028-0.0457 0.0099-0.0356 0.02234 0.0127 0.0322 0.0835 0.01238 0.0835zm-0.06471-5.749c-0.01499 8e-3 -0.01746-3e-3 -0.0099-0.0229 0.01744-0.0457 0.03472-0.0531 0.03472-0.0178 0 0.0153-0.0099 0.0331-0.02486 0.0407zm0.01499 5.624c-0.0047 0-0.01743-0.0178-0.02486-0.0407-0.0075-0.0204-0.0047-0.0305 0.0099-0.0229 0.02486 0.0153 0.03472 0.0622 0.01499 0.0622zm-0.04971-0.0993c-0.0047 0-0.01743-0.0178-0.02486-0.0407-0.0075-0.0204-0.0047-0.0305 0.0099-0.023 0.02486 0.0153 0.03472 0.0619 0.01499 0.0619zm-0.05222-0.0993c-0.0047 0-0.02234-0.0255-0.03733-0.0551-0.02737-0.0554-0.02486-0.0554 0.0099-0.0102 0.04219 0.0531 0.04719 0.0643 0.02738 0.0643zm-0.1937-0.2732c-0.0047 0-0.0298-0.0255-0.05706-0.0552l-0.04719-0.0581 0.05706 0.0484c0.05222 0.0457 0.06694 0.0642 0.0472 0.0642zm-0.3774-4.549c-0.0075-8e-3 0.0047-0.023 0.02977-0.0305 0.03472-0.0153 0.03733-0.0127 0.01499 0.0127-0.01745 0.0178-0.03733 0.0255-0.04458 0.0178zm-0.1043 4.229c-0.04971-0.0305-0.03472-0.0356 0.02979-0.0128 0.02234 0.0102 0.03472 0.023 0.02746 0.0281-0.0047 8e-3 -0.0322 0-0.05706-0.0153zm-0.1416-0.0432c-0.03723-8e-3 -0.06209-0.0204-0.05706-0.028 0.0075-5e-3 0.04217-3e-3 0.07705 8e-3 0.03733 8e-3 0.06219 0.0204 0.05706 0.028-0.0075 6e-3 -0.04218 3e-3 -0.07705-8e-3zm-0.01973-4.115c-0.01744-8e-3 -0.0047-0.0128 0.02987-0.0128 0.03472 0 0.0472 6e-3 0.0322 0.0128-0.01741 5e-3 -0.04719 5e-3 -0.06219 0zm-0.1366 0.0255c-0.02486-8e-3 -0.0099-0.0128 0.02987-0.0128 0.0422 0 0.05957 6e-3 0.04458 0.0128-0.01742 5e-3 -0.05222 5e-3 -0.07456 0zm-0.2433 4.033c-0.2359-0.0153-0.2607-0.0203-0.1242-0.0229 0.1664-5e-3 0.4445 0.0203 0.4271 0.0356-0.0028 5e-3 -0.1415-3e-3 -0.3029-0.0127zm-0.1167-4.008c-0.05957-6e-3 -0.01247-0.0102 0.1043-0.0102 0.1167 0 0.1639 5e-3 0.1068 0.0102-0.05967 5e-3 -0.154 5e-3 -0.2111 0zm-0.3079-0.0554c-0.1887-0.0551-0.1614-0.0666 0.03472-0.0178 0.08443 0.0229 0.144 0.0457 0.1316 0.0509-0.01499 6e-3 -0.08945-0.0102-0.1664-0.0331zm-0.1589 4.142c-0.03472 0.0102-0.02224 0 0.02486-0.023 0.04719-0.023 0.1266-0.0457 0.1738-0.0509 0.07706-0.0102 0.07456-8e-3 -0.02486 0.023-0.06219 0.0178-0.1391 0.0407-0.1738 0.0507zm-0.7449-4.999c-0.02738-0.0484-0.04719-0.0968-0.04719-0.1118 0-0.0127 0.01973 0.0153 0.04719 0.0624 0.02737 0.0483 0.04719 0.0993 0.04719 0.1117 0 0.0153-0.01973-0.0153-0.04719-0.0619zm-0.01973 5.724c-0.0075-8e-3 0-0.028 0.0174-0.0457 0.02486-0.0229 0.02738-0.0203 0.01238 0.0153-0.0075 0.0255-0.02234 0.0382-0.02984 0.0305zm-0.04971 0.0993c-0.0075-8e-3 0-0.028 0.01744-0.0457 0.02486-0.023 0.02737-0.0203 0.01247 0.0153-0.0075 0.0255-0.02234 0.0382-0.02983 0.0305zm-0.02975-6.071c-0.01247-0.0204-0.02234-0.0551-0.02234-0.0734 0-0.0255 0.0075-0.0204 0.02234 0.0127 0.02975 0.0668 0.02975 0.1068 0 0.0625zm0 6.183c-0.01247 0.0203-0.02486 0.0281-0.02486 0.0128 0-0.0128 0.01247-0.0432 0.02486-0.0623 0.01238-0.0203 0.02486-0.0255 0.02486-0.0127 0 0.0153-0.01247 0.0432-0.02486 0.0623zm-0.03985-6.315c-0.0075-8e-3 -0.0099-0.0305-0.0028-0.0483 0.0075-0.0204 0.01499-0.0127 0.01499 0.0153 0.0028 0.0281-0.0047 0.0432-0.01247 0.0331zm-0.0099 6.451c-0.01499 0.0331-0.02224 0.0382-0.02224 0.0127 0-0.0204 0.0099-0.0557 0.02224-0.0734 0.02987-0.0457 0.02987-6e-3 0 0.0626zm-0.01499-6.551c-0.0075-8e-3 -0.0099-0.0305-0.0028-0.0483 0.0075-0.0203 0.01499-0.0127 0.01499 0.0153 0.0028 0.028-0.0047 0.0432-0.01247 0.0331zm-0.03472-0.1788c-0.0099-0.0407-0.01973-0.1142-0.01743-0.1614v-0.086l0.01743 0.0993c0.0099 0.0551 0.01742 0.1266 0.01742 0.1614 0.0028 0.0551 0 0.0551-0.01742-0.0127zm0 6.903c-0.01247 0.0331-0.02234 0.0356-0.02234 0.0127 0-0.0204 0.0099-0.0605 0.02234-0.0862 0.01238-0.0331 0.02234-0.0356 0.02234-0.0127 0 0.0203-0.0099 0.0599-0.02234 0.0861zm-6.416-15.9c-1.405 5e-3 -2.51 0-2.458-0.0102 0.05222-0.0102 1.398-0.0153 2.99-0.0128 1.592 3e-3 2.697 8e-3 2.458 0.0102-0.2384 6e-3 -1.584 0.0102-2.99 0.0128zm-1.646 4.05c-0.0047-0.0605-0.0047-0.154 0-0.2111 0.0047-0.0601 0.0099-0.0128 0.0099 0.1043 0 0.1167-0.0047 0.1639-0.0099 0.1068zm-0.02486-0.3799c-0.0075-0.0203-0.02983-0.0666-0.04971-0.1043-0.01744-0.0407-0.02738-0.0689-0.02234-0.0689 0.02234 0 0.08695 0.1341 0.08695 0.1738-0.0028 0.0331-0.0028 0.0331-0.01499 0zm-0.0075 0.658c-0.02737 0.0623-0.02737-3e-3 0-0.0861 0.01499-0.0509 0.01973-0.0531 0.01973-0.0128 0 0.0281-0.0075 0.0708-0.01973 0.0993zm-0.04971 0.1614c-0.02976 0.0457-0.02976 5e-3 0-0.0623 0.01499-0.0331 0.02234-0.0383 0.02234-0.0128 0 0.0203-0.0099 0.0549-0.02234 0.0734zm-0.04971 0.149c-0.02234 0.0331-0.02486 0.0331-0.02486 0 0-0.0203 0.01247-0.055 0.02486-0.0734 0.02234-0.0331 0.02486-0.0331 0.02486 0 0 0.0203-0.01247 0.0557-0.02486 0.0734zm-0.09935 0.2235c-0.01238 0.0203-0.02486 0.028-0.02486 0.0127 0-0.0127 0.01247-0.0432 0.02486-0.062 0.01247-0.0204 0.02486-0.0255 0.02486-0.0127 0 0.0153-0.01247 0.0432-0.02486 0.0621zm-0.2408 0.298-0.1937 0.1862 0.1862-0.1912c0.1714-0.1788 0.1987-0.2061 0.1987-0.1862 0 3e-3 -0.08695 0.0887-0.1912 0.1912zm-0.1689-2.078c-0.02234-8e-3 -0.03472-0.0204-0.02738-0.0255 0.0075-8e-3 0.02234-5e-3 0.03723 6e-3 0.03985 0.023 0.0322 0.0382-0.0099 0.0204zm-0.1291-0.0553c-0.04971-0.0306-0.03472-0.0356 0.02982-0.0128 0.02234 0.0102 0.03472 0.023 0.02737 0.028-0.0047 8e-3 -0.0322 0-0.05706-0.0153zm-0.1242-0.0507c-0.04971-0.0305-0.03472-0.0356 0.02984-0.0128 0.02224 0.0102 0.03472 0.023 0.02738 0.028-0.0047 8e-3 -0.0322 0-0.05706-0.0153zm-0.2185-2.913c-0.03985 0-0.03733-6e-3 0.01247-0.0203 0.08443-0.028 0.149-0.028 0.08695 0-0.02737 0.0127-0.07205 0.0203-0.09932 0.0203zm-0.01238 5.617c-0.02737 0.0153-0.04971 0.0203-0.04971 0.0153 0-8e-3 0.02234-0.0255 0.04971-0.0407 0.02738-0.0153 0.04971-0.0203 0.04971-0.0153 0 8e-3 -0.02234 0.0255-0.04971 0.0407zm-0.0422-2.803c-0.04971-0.0306-0.03472-0.0356 0.02982-0.0127 0.02234 0.0102 0.03472 0.023 0.02738 0.028-0.0047 8e-3 -0.0322 0-0.05706-0.0153zm-0.1192-2.761c-0.01238 0-0.0075-0.0102 0.01247-0.023 0.01973-0.0128 0.05451-0.023 0.07456-0.023 0.03985 0-0.03985 0.0432-0.08695 0.0457zm-0.08443 2.684c-0.1564-0.0605-0.3749-0.1713-0.3749-0.1862 0-8e-3 0.06471 0.0203 0.144 0.0581 0.07706 0.0407 0.1937 0.0912 0.2607 0.1167 0.06471 0.0255 0.1142 0.0509 0.1092 0.0551-0.0075 5e-3 -0.06943-0.0128-0.139-0.0432zm0.04719 2.992c-0.03985 0.023-0.07456 0.0331-0.07456 0.0281 0-8e-3 0.03472-0.0306 0.07456-0.0531 0.0422-0.023 0.07456-0.0331 0.07456-0.0281 0 8e-3 -0.0322 0.0306-0.07456 0.0533zm-0.1117-5.624c-0.01247 0-0.0075-0.0128 0.01247-0.0255 0.01973-0.0127 0.04971-0.0255 0.06219-0.0255 0.01499 0 0.0075 0.0128-0.01247 0.0255-0.01973 0.0128-0.04719 0.0255-0.06219 0.0255zm-0.1539 0.0709c-0.05957 0.0306-0.1068 0.0484-0.1068 0.0408 0-0.0128 0.1862-0.1118 0.2135-0.1118 0.02737 0 0.0047 0.0153-0.1068 0.0708zm0.02738 5.674c-0.01973 8e-3 -0.0298 5e-3 -0.02234-0.0102 0.0075-0.0153 0.02486-0.0255 0.03985-0.0255 0.03472 0 0.02738 0.0178-0.01747 0.0356zm-0.2334 0.0993c-0.03472 8e-3 -0.01742-8e-3 0.03733-0.0331 0.05448-0.028 0.1117-0.0507 0.1242-0.0507 0.03733 0-0.09177 0.0648-0.1614 0.081zm-0.2483 0.0993c-0.03472 8e-3 -0.01745-8e-3 0.03733-0.0331 0.05451-0.028 0.1117-0.0507 0.1242-0.0507 0.03733 0-0.09177 0.0639-0.1614 0.081zm0.09177-3.635c-0.0047 0-0.03472-0.0306-0.06944-0.0667l-0.05957-0.0685 0.06943 0.0605c0.06219 0.0576 0.0793 0.0759 0.05957 0.0759zm-0.08443-1.934c-0.03985 0.0331-0.04219 0.0306-0.0099-8e-3 0.0322-0.0432 0.05222-0.0555 0.05222-0.0357 0 5e-3 -0.01973 0.0255-0.04218 0.0432zm-0.1937 5.632c-0.01238 0-0.0075-0.0102 0.01247-0.023 0.01973-0.0127 0.05451-0.023 0.07456-0.023 0.03985 0-0.03985 0.0432-0.08695 0.0457zm-0.0075-5.349c-0.0075-8e-3 0-0.0281 0.01745-0.0457 0.02486-0.023 0.02746-0.0203 0.01247 0.0153-0.0075 0.0255-0.02234 0.0382-0.02982 0.0305zm0.03472 1.329c-0.0047 0-0.01742-0.0178-0.02486-0.0407-0.0075-0.0203-0.0047-0.0305 0.0099-0.023 0.02486 0.0153 0.03472 0.0624 0.01499 0.0624zm-0.06471-1.217c-0.01238 0.0203-0.02486 0.028-0.02486 0.0127 0-0.0127 0.01247-0.0432 0.02486-0.062 0.01247-0.0203 0.02486-0.0255 0.02486-0.0128 0 0.0153-0.01247 0.0432-0.02486 0.0618zm0 1.068c-0.01238-0.0204-0.02486-0.0484-0.02486-0.062 0-0.0127 0.01247-8e-3 0.02486 0.0128 0.01247 0.0203 0.02486 0.0509 0.02486 0.0623 0 0.0153-0.01247 8e-3 -0.02486-0.0127zm-0.1242 4.219c-0.02234 0-0.01973-0.0102 0.01247-0.023 0.02738-0.0127 0.06692-0.023 0.08695-0.023 0.02234 0 0.01973 0.0102-0.01238 0.023-0.02746 0.0128-0.06696 0.023-0.08704 0.023zm0.07456-5.125c-0.01247 0.0331-0.02234 0.0357-0.02234 0.0128 0-0.0203 0.0099-0.0605 0.02234-0.0861 0.01238-0.0331 0.02234-0.0356 0.02234-0.0128 0 0.0203-0.0099 0.0599-0.02234 0.0861zm0 0.745c-0.01247-0.028-0.01973-0.0708-0.01973-0.0993 0-0.0407 0.0047-0.0382 0.01973 0.0127 0.02738 0.0835 0.02738 0.149 0 0.0861zm-0.04217-0.3029c-0.0047-0.0581-0.0047-0.159 0-0.2235 0.0047-0.0638 0.0075-0.0178 0.0075 0.1044 0 0.1241-0.0028 0.1763-0.0075 0.1192zm-0.2061 4.733c-0.02234 0-0.01973-0.0102 0.01238-0.023 0.02738-0.0127 0.06693-0.023 0.08695-0.023 0.02234 0 0.01973 0.0102-0.01238 0.023-0.02737 0.0128-0.06696 0.023-0.08695 0.023zm-0.2111 0.0483c-0.03985 0-0.03723-5e-3 0.01247-0.0203 0.08443-0.028 0.149-0.028 0.08704 0-0.02738 0.0128-0.07205 0.0203-0.09935 0.0203zm-0.2483 0.0506c-0.03985 0-0.03733-5e-3 0.01238-0.0204 0.03472-0.0102 0.08944-0.0203 0.1242-0.0203 0.0546 0 0.0546 3e-3 -0.01247 0.0203-0.03985 0.0102-0.09681 0.0204-0.1241 0.0204zm-0.298 0.0507c-0.06219 0-0.05957-5e-3 0.02486-0.023 0.1266-0.0255 0.2285-0.0255 0.1242 3e-3 -0.03985 0.0102-0.1068 0.0203-0.149 0.0203zm-0.4569 0.0529c-0.1887 5e-3 -0.09932-0.0153 0.1341-0.0305 0.1639-0.0102 0.1912-8e-3 0.09932 8e-3 -0.06695 0.0102-0.1738 0.0229-0.2334 0.0229zm-0.6158 0.0203c-0.0793-5e-3 -0.01973-8e-3 0.1291-8e-3 0.1515 0 0.216 3e-3 0.144 8e-3 -0.07205 5e-3 -0.1937 5e-3 -0.2732 0zm-0.447-0.0255c-0.03985-5e-3 -0.01238-0.0102 0.05463-0.0102 0.06944 0 0.09932 6e-3 0.06944 0.0102-0.0322 5e-3 -0.08704 5e-3 -0.1242 0zm-0.2111-0.0255c-0.0322-5e-3 -0.01239-0.0102 0.04218-0.0102 0.05451-3e-3 0.0793 3e-3 0.05706 0.0102-0.02486 6e-3 -0.06943 6e-3 -0.09935 0zm-0.2408-0.0331c-0.05706-0.0102-0.09933-0.023-0.09177-0.028 0.0075-8e-3 0.05706-6e-3 0.1142 5e-3 0.05706 0.0102 0.09685 0.023 0.09177 0.0281-0.0047 8e-3 -0.05706 5e-3 -0.1142-6e-3zm-0.2881-0.0484c-0.06219-0.0102-0.1093-0.023-0.1018-0.0306 0.0047-6e-3 0.06219-3e-3 0.1266 5e-3 0.06219 0.0102 0.1093 0.023 0.1018 0.0305-0.0047 5e-3 -0.06209 3e-3 -0.1266-5e-3zm-0.2979-0.0506c-0.06209-0.0102-0.1093-0.023-0.1018-0.0305 0.0047-5e-3 0.06209-3e-3 0.1266 5e-3 0.06209 0.0102 0.1093 0.023 0.1018 0.0306-0.0047 5e-3 -0.06209 3e-3 -0.1266-6e-3zm-0.2582-0.0531c-0.04217-0.0102-0.07456-0.023-0.06695-0.028 0.0047-8e-3 0.04719-5e-3 0.08948 6e-3 0.1018 0.0229 0.08192 0.0432-0.02234 0.0229zm-0.2011-0.0483c-0.1018-0.023-0.08192-0.0432 0.02234-0.023 0.04215 0.0102 0.07456 0.023 0.06695 0.0281-0.0047 8e-3 -0.04719 5e-3 -0.08948-6e-3zm-0.1838-0.0533c-0.03733-8e-3 -0.06219-0.0203-0.05706-0.028 0.0075-6e-3 0.0422-3e-3 0.07702 8e-3 0.03733 8e-3 0.06209 0.0204 0.05706 0.028-0.0075 5e-3 -0.04214 3e-3 -0.07708-8e-3zm-0.04971-4.904c-0.0047-5e-3 -0.01499-0.0708-0.02224-0.1465-0.0099-0.0887-0.0075-0.1143 0.0075-0.0734 0.01973 0.0623 0.0322 0.2409 0.01499 0.221zm-0.01499 0.4122c-0.01238 0.0457-0.01499 5e-3 -0.0075-0.0994 0.0075-0.0939 0.01744-0.1788 0.02224-0.1837 0.01738-0.0203 0.0047 0.2085-0.01499 0.283zm-0.04971-0.745c-0.02976-0.0661-0.02976-0.1068 0-0.0617 0.01247 0.0204 0.02234 0.0557 0.02234 0.0734 0 0.0255-0.0075 0.0204-0.02234-0.0128zm-0.02738 1.04c-0.02737 0.0759-0.06209 0.144-0.077 0.154-0.01499 0.0102-0.01238-8e-3 0.0047-0.0407 0.01742-0.0305 0.04971-0.1142 0.07456-0.1838 0.02486-0.0684 0.04719-0.1142 0.04719-0.0969 0.0028 0.0178-0.01973 0.0912-0.04971 0.1664zm-0.0322 4.147c-0.03723-8e-3 -0.06209-0.0204-0.05706-0.028 0.0075-5e-3 0.04219-3e-3 0.07706 8e-3 0.03733 8e-3 0.06219 0.0203 0.05706 0.028-0.0075 5e-3 -0.0422 3e-3 -0.07707-8e-3zm0.02486-5.299c-0.0047 0-0.01745-0.0178-0.02486-0.0407-0.0075-0.0204-0.0047-0.0306 0.0099-0.023 0.02486 0.0153 0.03472 0.0625 0.01499 0.0625zm-0.05222-0.0994c-0.0047 0-0.02234-0.0255-0.03733-0.0555-0.02737-0.0552-0.02486-0.0552 0.0099-0.0102 0.04217 0.0531 0.04719 0.0644 0.02738 0.0644zm-0.1291 5.341c-0.04971-0.0306-0.03472-0.0356 0.02988-0.0128 0.02234 0.0102 0.03472 0.023 0.02737 0.028-0.0047 8e-3 -0.0322 0-0.05706-0.0153zm-0.1341-0.0508c-0.0322-0.0128-0.04719-0.0255-0.02983-0.0255 0.03733-3e-3 0.1117 0.0255 0.09935 0.0383-0.0047 8e-3 -0.03733 0-0.06953-0.0127zm-0.2384-0.0991c-0.04971-0.0306-0.03472-0.0356 0.02989-0.0127 0.02234 0.0102 0.03472 0.023 0.02738 0.028-0.0047 8e-3 -0.0322 0-0.05706-0.0153zm-0.08443-3.28c-0.05706 0.0305-0.1068 0.0508-0.1117 0.0457-0.0047-8e-3 0.04217-0.0356 0.1018-0.0644 0.139-0.0664 0.149-0.0509 0.0099 0.0203zm-0.02986 3.231c-0.02234-0.0255-0.01973-0.028 0.01499-0.0127 0.02486 8e-3 0.03733 0.023 0.02984 0.0306-0.0075 8e-3 -0.02738 0-0.04458-0.0178zm-0.04971-5.711c-0.02224-0.0255-0.01973-0.0281 0.01499-0.0128 0.02486 8e-3 0.03723 0.023 0.02981 0.0305-0.0075 8e-3 -0.02737 0-0.04458-0.0178zm-0.08937 5.647c-0.1068-0.0532-0.09685-0.0708 0.0099-0.0204 0.04719 0.023 0.08191 0.0457 0.07704 0.053-0.0047 6e-3 -0.04458-0.0102-0.08695-0.0331zm-0.04452-5.699c-0.04216-0.0281-0.04216-0.0281 0-0.0153 0.02486 8e-3 0.05957 0.0153 0.07456 0.0178 0.02234 0 0.02234 5e-3 0 0.0127-0.0174 8e-3 -0.04971 0-0.07456-0.0153zm-0.06944 2.657c-0.01238 0-0.0075-0.0127 0.01247-0.0255 0.01973-0.0127 0.04971-0.0255 0.06219-0.0255 0.01499 0 0.0075 0.0128-0.01239 0.0255-0.01973 0.0128-0.04719 0.0255-0.06219 0.0255zm-0.05449-2.704c-0.04971-0.0305-0.03472-0.0356 0.02984-0.0128 0.02234 0.0102 0.03472 0.023 0.02738 0.0281-0.0047 8e-3 -0.0322 0-0.05706-0.0153zm0.0099 5.662c-0.02234-0.0255-0.01973-0.0281 0.01499-0.0128 0.02486 8e-3 0.03723 0.023 0.02978 0.0305-0.0075 8e-3 -0.02737 0-0.04458-0.0178zm-0.0793-2.908c-0.01247 0-0.0075-0.0128 0.01247-0.0255 0.01973-0.0128 0.04971-0.0255 0.06219-0.0255 0.01499 0 0.0075 0.0127-0.01247 0.0255-0.01973 0.0127-0.04719 0.0255-0.06219 0.0255zm-0.06692-2.789c-0.01973-8e-3 -0.01247-0.0153 0.01499-0.0153 0.02738-3e-3 0.04216 6e-3 0.0322 0.0128-0.0075 8e-3 -0.0298 0.0102-0.0472 3e-3zm-0.08192 2.836c-0.01239 0-0.0075-0.0102 0.01238-0.0229 0.01982-0.0128 0.0546-0.023 0.07456-0.023 0.03985 0-0.03985 0.0432-0.08695 0.0457zm-0.1242 0.0532c-0.01247 0-0.0075-0.0127 0.01247-0.0255 0.01973-0.0128 0.04971-0.0255 0.06209-0.0255 0.01499 0 0.0075 0.0127-0.01238 0.0255-0.01973 0.0127-0.04719 0.0255-0.06209 0.0255zm-0.1489 0.0484c-0.01247 0-0.0075-0.0102 0.01247-0.023 0.01973-0.0127 0.05451-0.023 0.07456-0.023 0.03985 0-0.03985 0.0432-0.08695 0.0457zm-0.07705 0.0382c-0.01973 8e-3 -0.0298 5e-3 -0.02234-0.0102 0.0075-0.0153 0.02486-0.0255 0.03985-0.0255 0.03472 0 0.02737 0.0178-0.01743 0.0357zm-0.04221 2.299c-0.0028 0-0.09435-0.0912-0.2036-0.2036l-0.1987-0.2061 0.2061 0.1986c0.1887 0.1838 0.216 0.2111 0.1962 0.2111zm-0.4395-1.999c-0.05453 0.0533-0.09933 0.0912-0.09933 0.0835 0-8e-3 0.04458-0.0575 0.09933-0.1093 0.05459-0.0531 0.09935-0.0912 0.09935-0.0835 0 8e-3 -0.04458 0.0576-0.09935 0.1092zm0 1.502c-0.02738-0.0484-0.0472-0.0969-0.0472-0.1118 0-0.0127 0.01973 0.0153 0.0472 0.0623 0.02737 0.0484 0.04719 0.0994 0.04719 0.1118 0 0.0153-0.01973-0.0153-0.04719-0.0623zm-0.07456-0.1738c-0.01247-0.0204-0.02486-0.0484-0.02486-0.0622 0-0.0128 0.01247-8e-3 0.02486 0.0127 0.01247 0.0204 0.02486 0.0509 0.02486 0.0616 0 0.0153-0.01238 8e-3 -0.02486-0.0127zm-0.04971-0.1241c-0.01238-0.0204-0.02234-0.0557-0.02234-0.0734 0-0.0255 0.0075-0.0203 0.02234 0.0128 0.02984 0.0661 0.02984 0.1067 0 0.0619zm-0.04971-0.9436c-0.01239 0.0204-0.02486 0.028-0.02486 0.0127 0-0.0127 0.01247-0.0432 0.02486-0.062 0.01247-0.0203 0.02486-0.0255 0.02486-0.0127 0 0.0153-0.01238 0.0432-0.02486 0.062zm0 0.7822c-0.01239-0.0281-0.02234-0.0664-0.02234-0.0861 0-0.023 0.0099-0.0204 0.02234 0.0127 0.01247 0.028 0.02234 0.0667 0.02234 0.086 0 0.023-0.0099 0.0204-0.02234-0.0127zm-0.05958-0.2856c-0.0047 0.0203-0.0099-0.0531-0.0099-0.1614 0-0.1092 0.0075-0.221 0.01744-0.2483 0.01745-0.0457 0.0099 0.3228-0.0075 0.4097zm0.01973 0.1167c-0.0075-8e-3 -0.0099-0.0306-0.0028-0.0483 0.0075-0.0205 0.01499-0.0128 0.01499 0.0153 0.0028 0.028-0.0047 0.0432-0.01247 0.0331z" stroke-width=".002483"/>
   <path id="puzzle-lr" d="m37.27 266.4 0.0044 1.275c0.0047 0.7024 0.01008 2.74 0.01507 4.528l0.0049 3.25 0.06706 0.2216c0.07721 0.259 0.2592 0.6478 0.2916 0.6279 0.01251-8e-3 0.03703 4e-3 0.05443 0.0296 0.03235 0.0373 0.03006 0.0401-0.0097 8e-3 -0.02248-0.0174-0.04228-0.0227-0.04228-8e-3 0 0.0298 0.0623 0.0845 0.0797 0.0671 0.0075-8e-3 0.02711 8e-3 0.04714 0.0301 0.03235 0.0399 0.03016 0.0421-0.0097 0.01-0.07975-0.0648-0.04237 8e-3 0.0622 0.1147 0.1046 0.1071 0.1819 0.1468 0.1171 0.0622-0.02736-0.0374-0.02727-0.0372 0.0029-0.01 0.01984 0.0174 0.03742 0.0447 0.03742 0.0598 0 0.0149 0.01457 0.0323 0.0345 0.0399 0.02248 8e-3 0.02748 1e-5 0.01507-0.0199-0.01241-0.0225-0.0097-0.0276 0.0102-0.0151 0.01495 0.01 0.0221 0.0273 0.01458 0.0399-0.01984 0.0324 0.1547 0.117 0.329 0.1618 0.2043 0.0523 0.5804 0.0476 0.8121-0.01 0.2117-0.0548 0.3484-0.1172 0.3285-0.1521-0.0075-0.0125 1.12e-4 -0.0298 0.01506-0.0399 0.01994-0.0125 0.02271-7e-3 0.01021 0.0151-0.01251 0.0198-0.0079 0.0274 0.01458 0.0199 0.01984-8e-3 0.03499-0.0249 0.03499-0.0374 0-0.015 0.0098-0.0376 0.02235-0.0501 0.01241-0.0125 0.01511-7e-3 0.0049 0.0102-0.03987 0.0697 0.02976 0.0246 0.1419-0.0875 0.1121-0.1146 0.1522-0.1768 0.08747-0.1395-0.01994 0.01-0.02514 8e-3 -0.01263-4e-3 0.01241-0.0125 0.0351-0.0228 0.05006-0.0228 0.0474 0 0.2264-0.3659 0.3684-0.7469 0.07222-0.1918 0.152-0.391 0.1769-0.4408 0.04984-0.1021 0.06245-0.1818 0.0175-0.1196-0.02238 0.0324-0.02503 0.0324-0.01507 0 0.0056-0.0199 0.02247-0.0374 0.03742-0.0374 0.03226 0 0.1394-0.1594 0.122-0.1793-0.0075-5e-3 -0.03473 0.0271-0.06464 0.0719-0.02736 0.0448-0.05249 0.0722-0.05249 0.0622 0-0.0373 0.1021-0.1665 0.122-0.1565 0.02248 0.0149 0.1745-0.1348 0.1745-0.1672 0-0.0125 0.0076-0.0298 0.01749-0.0374 0.01-0.01 0.01-3e-3 0 0.0126-0.02492 0.0423-0.01722 0.0424 0.1123-0.0223 0.1495-0.0722 0.4508-0.0873 0.6774-0.035 0.09466 0.0224 0.2886 0.0846 0.4306 0.1419 0.2441 0.0947 0.2718 0.1145 0.4636 0.3037 0.1096 0.1121 0.2092 0.2017 0.2192 0.1992 0.01-3e-3 0.03971 0.0202 0.06463 0.0501l0.04714 0.0549-0.05443-0.0476c-0.03235-0.0275-0.05735-0.0373-0.05735-0.0224 0 0.0323 0.08705 0.1122 0.1045 0.0923 0.0075-8e-3 0.04017 0.0247 0.06998 0.0695l0.05443 0.0821-0.06464-0.0749c-0.1021-0.1171-0.07701-0.0569 0.06998 0.1672 0.4857 0.7497 0.7845 1.773 0.8368 2.884 0.02492 0.5205-0.0028 0.9089-0.09962 1.519-0.09216 0.5579-0.1694 0.9088-0.2765 1.245-0.08464 0.2615-0.2566 0.6752-0.3562 0.847-0.07223 0.1245-0.07985 0.162-0.03499 0.1346 0.01994-0.01 0.02505-8e-3 0.01264 4e-3 -0.01251 0.0125-0.03231 0.0228-0.04228 0.0228-0.02737 0-0.1821 0.2363-0.1672 0.2537 0.0075 5e-3 0.03774-0.0299 0.06755-0.0773 0.04984-0.0822 0.1017-0.1316 0.05929-0.0569-0.05229 0.0897-0.1168 0.1664-0.1293 0.1565-0.0174-0.0174-0.0797 0.0327-0.0797 0.0651 0 0.0149 0.01979 0.01 0.04471-8e-3 0.03733-0.0324 0.04012-0.0297 0.0078 0.0102-0.01994 0.0225-0.0401 0.0372-0.04763 0.0296-0.0174-0.0174-0.0797 0.0377-0.0797 0.0676 0 0.015 0.01979 0.01 0.04471-8e-3 0.03743-0.0324 0.04013-0.0297 0.0078 8e-3 -0.0174 0.0249-0.04252 0.0396-0.05248 0.0321-0.01241-8e-3 -0.06711 0.0426-0.1244 0.1098-0.2316 0.279-0.506 0.4356-0.9617 0.5501-0.2964 0.0748-0.5203 0.0627-0.7669-0.0369-0.03743-0.0174-0.04217-0.0129-0.02721 0.0146 0.01241 0.0198 0.01232 0.0275-0.0029 0.0151-0.01241-0.0124-0.02236-0.0299-0.02236-0.0374 0-0.0274-0.2219-0.2415-0.2493-0.2415-0.02492 0-0.1619-0.2318-0.1594-0.2741 0-0.0149 0.03496 0.0403 0.07484 0.1225 0.1046 0.2017 0.1118 0.1641 0.0097-0.0476-0.0474-0.0971-0.1416-0.3311-0.2138-0.5229-0.1768-0.4782-0.3686-0.8541-0.4184-0.8242-0.01 8e-3 -0.06994-0.0403-0.1298-0.1025-0.05981-0.0623-0.09235-0.1042-0.07241-0.0943 0.03235 0.0198 0.03245 0.0173 0.0029-0.0199-0.03743-0.0474-0.08966-0.0574-0.06221-0.0126 0.01 0.0174 0.0078 0.0202-0.01215 0.0102-0.01495-0.01-0.02259-0.0274-0.01506-0.0399 0.02248-0.0374-0.2291-0.1496-0.4209-0.192-0.2615-0.0547-0.6153-0.0497-0.8121 0.0151-0.1868 0.0598-0.3637 0.1566-0.3562 0.1939 0.0028 0.015-0.02015 0.0475-0.05006 0.0724l-0.05443 0.0471 0.04714-0.0568c0.07965-0.0947 0.01004-0.0601-0.1021 0.0496-0.1121 0.1096-0.1497 0.1892-0.05006 0.1045l0.05492-0.0471-0.04714 0.0549c-0.02492 0.0299-0.05757 0.052-0.06998 0.0496-0.01495-3e-3 -0.03233 0.0102-0.03985 0.0301-0.0075 0.0225 3.63e-4 0.027 0.02284 0.0146 0.01994-0.0125 0.02699-0.01 0.01458 3e-3 -0.01241 0.0124-0.03462 0.0228-0.04957 0.0228-0.01241 0-0.0299 0.0146-0.03742 0.0345-0.0075 0.0225 8.2e-5 0.0275 0.01993 0.0151 0.02248-0.0125 0.02709-0.01 0.01458 0.0102-0.01 0.015-0.02987 0.0221-0.04228 0.0122-0.03235-0.0198-0.157 0.2589-0.2342 0.5229l-0.04908 0.1716v9.333h25.32v-25.35h-20.84zm15.93 2e-3c0.01984 0 0.05962 0.01 0.08699 0.0224 0.03235 0.0125 0.03511 0.0228 0.01263 0.0228-0.01993 0-0.06001-0.0103-0.08747-0.0228-0.03235-0.0124-0.03463-0.0224-0.01215-0.0224zm-6.825 5e-3c0.05473-3e-3 0.055-3.9e-4 -0.01215 0.017h-4.85e-4c-0.03987 0.01-0.1145 0.02-0.1618 0.0175h-0.08699l0.09963-0.0175c0.05473-0.01 0.1269-0.017 0.1618-0.017zm-9.049 3.454c0.0056 0.2391 0.0101 1.589 0.01264 2.999 0.0047 1.41 2.49e-4 2.518-0.0097 2.466-0.01-0.0523-0.01508-1.402-0.01263-2.999 0.0028-1.597 0.0073-2.705 0.0097-2.466zm3.968 4.64c0.1171 0 0.1642 5e-3 0.1069 0.0102-0.05981 5e-3 -0.1541 5e-3 -0.2114 0-0.05972-5e-3 -0.01263-0.0102 0.1045-0.0102zm-0.2741 0.0199c0.03235 3e-3 0.03235 3e-3 0 0.0151-0.01984 8e-3 -0.06711 0.0296-0.1045 0.0496-0.03987 0.0174-0.06998 0.0277-0.06998 0.0228 0-0.0225 0.1346-0.0875 0.1745-0.0875zm0.5603 2e-3c0.02746 0 0.07219 8e-3 0.09963 0.0199 0.06225 0.0274-0.0026 0.0274-0.08699 0-0.04984-0.015-0.05242-0.0199-0.01264-0.0199zm0.1866 0.0476c0.01984 0 0.05481 0.01 0.07484 0.0224 0.04476 0.0298 0.0048 0.0298-0.0622 0-0.03235-0.015-0.03756-0.0224-0.01264-0.0224zm0.1497 0.0471c0.01984 0 0.05481 0.0124 0.07484 0.0248 0.03235 0.0225 0.03235 0.0253 0 0.0253-0.01984 0-0.05481-0.0129-0.07484-0.0253-0.03235-0.0225-0.03235-0.0248 0-0.0248zm0.2367 0.0996c0.01495 0 0.04227 0.0129 0.0622 0.0253 0.01984 0.0124 0.02759 0.0248 0.01264 0.0248-0.01241 0-0.04227-0.0124-0.06221-0.0248-0.01993-0.0125-0.02514-0.0253-0.01263-0.0253zm0.1691 0.0748c0.0028 0 0.08986 0.0874 0.192 0.192l0.1866 0.1939-0.1915-0.1866c-0.1793-0.1719-0.207-0.1992-0.1871-0.1992zm-1.887 0.3251c0.0044 2e-3 0.0039 0.0148-0.0049 0.036h-9.7e-4c-0.0075 0.0225-0.0198 0.0347-0.02479 0.0272-0.0075-8e-3 -0.0045-0.0221 0.0058-0.0369 0.01124-0.0199 0.02042-0.0284 0.02479-0.0262zm-0.04568 0.1084c0.0075 5e-3 3.73e-4 0.0324-0.01458 0.0574-0.0299 0.0498-0.03502 0.0347-0.01264-0.0301 0.01-0.0225 0.02232-0.0347 0.02721-0.0272zm-0.04957 0.1244c0.0075 5e-3 -1.12e-4 0.0324-0.01506 0.0573-0.02981 0.0498-0.03502 0.0347-0.01264-0.0301 0.01-0.0224 0.02281-0.0347 0.0277-0.0272zm-2.972 0.1521c0.0034 1e-3 0.0087 9e-3 0.01555 0.0248 0.01241 0.0274 0.01944 0.0722 0.01944 0.0996 0 0.0399-0.0052 0.0373-0.01944-0.0126-0.02052-0.0635-0.02581-0.1158-0.01555-0.1118zm5.629 0.087c0.0075 0 0.0249 0.0222 0.03985 0.0496s0.01996 0.05 0.01506 0.05c-0.0075 0-0.0249-0.0227-0.03985-0.05-0.01495-0.0274-0.01995-0.0496-0.01507-0.0496zm-2.757 0.035c0.0075 5e-3 -1.12e-4 0.0324-0.01506 0.0573-0.02991 0.0498-0.03463 0.0347-0.01215-0.0301 0.01-0.0225 0.02232-0.0347 0.02721-0.0272zm-2.823 0.0797c0.01202 8e-3 0.03656 0.0612 0.03839 0.0967v4.8e-4c0 0.0124-0.0098 7e-3 -0.02236-0.0126-0.01251-0.0198-0.02235-0.0548-0.02235-0.0748 0-0.01 0.0023-0.0123 0.0063-0.01zm2.773 0.0423c0.0047 8e-3 -0.01295 0.0697-0.04277 0.1395-0.05972 0.1569-0.1717 0.3762-0.1866 0.3762-0.0075 0 0.01992-0.0652 0.05734-0.1448 0.03987-0.0772 0.09222-0.1942 0.1171-0.2615 0.02492-0.0648 0.04993-0.1143 0.05492-0.1093zm2.906 0.017c0.0075 0 0.0301 0.0324 0.05249 0.0748 0.02248 0.0399 0.03259 0.0748 0.0277 0.0748-0.0075 0-0.0301-0.035-0.05249-0.0748-0.02248-0.0423-0.03259-0.0748-0.0277-0.0748zm-5.631 0.1054c0.0047 2e-3 0.0108 9e-3 0.01701 0.019 0.01251 0.0199 0.02527 0.0477 0.02527 0.0627 0 0.0125-0.01286 7e-3 -0.02527-0.0126-0.01241-0.0198-0.02479-0.0497-0.02479-0.0622 0-7e-3 0.0031-9e-3 0.0078-7e-3zm0.0452 0.1181c0.0069 7e-5 0.02606 0.0338 0.06901 0.1176 0.0299 0.0598 0.04737 0.1074 0.03985 0.1074-0.01251 0-0.1118-0.1869-0.1118-0.2143 0-7e-3 6.19e-4 -0.0107 0.0029-0.0107zm5.736 0.052c0.0065 3e-3 0.01507 0.016 0.02381 0.0384 0.0075 0.0198 5e-3 0.0298-0.0097 0.0224-0.01495-8e-3 -0.02527-0.0249-0.02527-0.0399 0-0.0174 0.0046-0.024 0.01118-0.0209zm0.04422 0.104c0.01264 6.9e-4 0.06399 0.1076 0.07921 0.1686 0.0075 0.0349-0.0072 0.0174-0.03207-0.0374-0.02737-0.0547-0.05006-0.112-0.05006-0.1244 0-5e-3 0.0011-7e-3 0.0029-7e-3zm0.09962 0.2493c0.01264 6.8e-4 0.06399 0.1071 0.07921 0.1682 0.0075 0.0349-0.0072 0.0174-0.03207-0.0374-0.02737-0.0547-0.05006-0.112-0.05006-0.1244 0-5e-3 0.0011-6e-3 0.0029-6e-3zm-3.571 0.0685c0.0028 2e-4 0.0039 3e-3 0.0039 8e-3s-0.02973 0.0347-0.06706 0.0695l-0.06998 0.0598 0.05977-0.0695c0.04295-0.0468 0.06509-0.0681 0.07338-0.0675zm-1.979 0.0501c0.0047 0 0.02488 0.0199 0.04228 0.0423h4.85e-4c0.03235 0.0399 0.02965 0.0426-0.0078 0.0102-0.04232-0.0324-0.05483-0.0525-0.03499-0.0525zm5.653 0.1395c0.01202 8e-3 0.03607 0.0617 0.03791 0.0972 0 0.0124-0.0098 7e-3 -0.02235-0.0126-0.01241-0.0199-0.02235-0.0548-0.02235-0.0748 0-0.01 0.0028-0.0123 0.0068-0.01zm-4.02 0.0603c0.01372-3e-3 0.02576-7.3e-4 0.02576 9e-3 0 5e-3 -0.01738 0.0177-0.03985 0.0253-0.01984 8e-3 -0.02969 4e-3 -0.02235-0.0102 0.0075-0.0125 0.02273-0.0212 0.03645-0.0243zm-1.366 6e-3c0.0022-2e-3 0.01176 1e-3 0.02916 9e-3 0.02492 8e-3 0.03717 0.0223 0.02965 0.0297-0.0075 8e-3 -0.02741-1e-4 -0.04471-0.0175-0.01124-0.0125-0.01629-0.019-0.01409-0.0209zm0.1084 0.0437c0.01495 0 0.04266 0.0124 0.06269 0.0248 0.01984 0.0124 0.0271 0.0248 0.01215 0.0248-0.01241 0-0.04227-0.0124-0.0622-0.0248-0.01984-0.0125-0.02505-0.0248-0.01264-0.0248zm1.146 0c0.01495 0 0.0073 0.0124-0.01264 0.0248s-0.04725 0.0248-0.0622 0.0248c-0.01241 0-0.0074-0.0124 0.01263-0.0248 0.01984-0.0125 0.0497-0.0248 0.06221-0.0248zm4.181 0.035c0.0041 2e-3 0.0098 0.0106 0.01604 0.0267 0.01251 0.0275 0.02236 0.0675 0.02236 0.0875 0 0.0225-0.0098 0.0197-0.02236-0.0126-0.01241-0.0274-0.02284-0.067-0.02284-0.087 0-0.0112 0.0027-0.0165 0.0068-0.0146zm-5.19 0.017c0.01984 0 0.06001 0.01 0.08747 0.0224 0.03235 0.0125 0.03453 0.0224 0.01215 0.0224-0.01984 0-0.05953-0.01-0.08699-0.0224-0.03235-0.0124-0.03502-0.0224-0.01263-0.0224zm0.8461 2e-3c0.019 0 0.01947 7e-3 -0.01166 0.0204-0.02737 0.0125-0.07223 0.0199-0.09963 0.0199-0.03987 0-0.03721-5e-3 0.01264-0.0199 0.04232-0.0137 0.07965-0.0204 0.09865-0.0204zm-0.4349 0.0554c0.1245 0 0.1768 3e-3 0.1196 7e-3 -0.05727 5e-3 -0.1593 5e-3 -0.224 0-0.0648-5e-3 -0.01753-7e-3 0.1045-7e-3zm4.828 0.1001c0.0041 2e-3 0.0098 0.0106 0.01604 0.0267 0.01251 0.0274 0.02236 0.0675 0.02236 0.0875 0 0.0225-0.0098 0.0197-0.02236-0.0126-0.01241-0.0274-0.02235-0.0671-0.02235-0.087 0-0.0112 0.0023-0.0165 0.0063-0.0146zm0.05054 0.2017c0.0034 1e-3 0.0087 9e-3 0.01555 0.0243 0.01251 0.0274 0.01993 0.0722 0.01993 0.0996 0 0.0399-0.0048 0.0377-0.01993-0.0121-0.02052-0.0635-0.02581-0.1158-0.01555-0.1118zm0.04908 0.1968c0.0028 2e-3 0.0075 0.0183 0.01604 0.052 0.01 0.0399 0.01993 0.097 0.01993 0.1244 0 0.0399-0.0047 0.0372-0.01993-0.0126-0.01-0.0349-0.01993-0.0896-0.01993-0.1244 0-0.0274 0.0011-0.0409 0.0039-0.0394zm0.05054 0.2833c0.0035 3e-3 0.0086 0.0161 0.01555 0.0423 0.01 0.0399 0.01993 0.1074 0.01993 0.1497 0 0.0624-0.0046 0.06-0.02235-0.0248-0.01869-0.0952-0.02366-0.1766-0.01312-0.1672zm0.05249 0.3698c0.0012-0.0159 0.0056 9e-5 0.01312 0.0462 0.01 0.0672 0.02235 0.1745 0.02235 0.2342h-4.86e-4c0.0047 0.1893-0.01479 0.0995-0.02964-0.1346-5e-3 -0.0822-0.0066-0.1299-0.0053-0.1458zm0.052 0.5948c9.25e-4 2e-3 0.0017 0.0111 0.0029 0.0292 0.0047 0.0722 0.0047 0.1944 0 0.2741s-0.0073 0.0196-0.0073-0.1298c0-0.1139 0.0016-0.1786 0.0044-0.1735zm-0.02527 0.6152c0.0011 3.2e-4 0.0023 4e-3 0.0034 0.0117 0.0047 0.0324 0.0047 0.0872 0 0.1244-0.0047 0.0399-0.0102 0.0128-0.0102-0.0544 0-0.0523 0.0034-0.0826 0.0068-0.0817zm-0.02673 0.2401c0.0015-4e-5 0.0036 3e-3 0.0053 8e-3 0.0056 0.0249 0.0056 0.0697 0 0.0996-0.0047 0.0324-0.01021 0.0125-0.01021-0.0423-0.0021-0.041 3.91e-4 -0.0655 0.0049-0.0656zm-0.02235 0.2347c0.0075 5e-3 0.0045 0.0574-0.0058 0.1147h9.73e-4c-0.01 0.0573-0.02233 0.0998-0.02722 0.0923-0.0075-8e-3 -6e-3 -0.0574 0.0044-0.1147 0.01-0.0573 0.02272-0.0973 0.0277-0.0923zm-0.04763 0.2765c0.0047 5e-3 0.0027 0.0626-0.0049 0.1273h4.85e-4c-0.01 0.0623-0.0227 0.1095-0.03013 0.1021-0.0056-5e-3 -0.0027-0.0627 0.0049-0.1273 0.01-0.0623 0.02231-0.1095 0.02965-0.102zm-0.04957 0.2989c0.0047 5e-3 0.0026 0.0626-0.0058 0.1273h9.72e-4c-0.01 0.0623-0.02231 0.1096-0.02964 0.102-0.0047-5e-3 -0.0031-0.0626 0.0044-0.1273 0.01-0.0623 0.0227-0.1096 0.03013-0.1021zm-0.052 0.2974c0.0053 5e-3 0.0056 0.0366-0.0044 0.0889h-9.72e-4c-0.01 0.0423-0.02232 0.0746-0.02721 0.0671-0.0075-5e-3 -0.0045-0.0475 0.0058-0.0899 0.01119-0.0511 0.02144-0.0714 0.02673-0.0661zm-0.04763 0.2007c0.0075 5e-3 5e-3 0.0475-0.0053 0.0899h4.85e-4c-0.02248 0.1021-0.0422 0.0823-0.02235-0.0223 0.01-0.0423 0.02223-0.0751 0.02721-0.0676zm-0.04957 0.1968c0.0047 8e-3 0.0031 0.0424-0.0073 0.0773-0.0075 0.0374-0.02018 0.0624-0.0277 0.0573-0.0056-8e-3 -0.0026-0.0424 0.0078-0.0773 0.0075-0.0374 0.01978-0.0623 0.02721-0.0573zm-4.944 0.1191c0.01498 9.6e-4 0.02248 3e-3 0.01749 8e-3v4.9e-4c-0.0047 5e-3 -0.07201 0.0149-0.1468 0.0224-0.08972 0.01-0.1146 7e-3 -0.07484-8e-3 0.04669-0.0149 0.1592-0.0257 0.2041-0.0228zm0.1725 4.9e-4c0.05956-3e-3 0.2025 8e-3 0.2585 0.0228v-4.9e-4c0.04477 0.0124 0.0047 0.0152-0.09962 8e-3 -0.09463-8e-3 -0.1792-0.0174-0.1842-0.0224-5e-3 -4e-3 0.0054-7e-3 0.02527-8e-3zm-0.4763 0.05c0.02476 0 0.01926 8e-3 -0.01263 0.0224-0.06687 0.0295-0.1068 0.0297-0.06221 0 0.01994-0.0125 0.0549-0.0224 0.07484-0.0224zm0.8645 0c0.0174-3e-3 0.09195 0.0201 0.1667 0.0501v-4.9e-4c0.07721 0.0274 0.1446 0.0623 0.1545 0.0773 0.01 0.0149-0.0075 0.0127-0.03985-4e-3 -0.02981-0.0174-0.1149-0.0499-0.1847-0.0748-0.06969-0.0249-0.1141-0.0476-0.09671-0.0476zm4.333 5e-3c0.0047 8e-3 0.0031 0.0424-0.0073 0.0773-0.0075 0.0373-0.01978 0.0623-0.02721 0.0573-0.0047-8e-3 -0.0031-0.0424 0.0073-0.0773 0.0075-0.0374 0.01969-0.0624 0.02721-0.0573zm-5.348 0.0428c0.01372-3e-3 0.02576-2.5e-4 0.02576 0.01 0 5e-3 -0.01738 0.0173-0.03985 0.0248-0.01994 8e-3 -0.02978 4e-3 -0.02235-0.0102 0.0075-0.0125 0.02273-0.0212 0.03645-0.0243zm-0.08651 0.052c0.0096-4e-3 0.01264-3e-4 0.01264 0.01 0 5e-3 -0.02511 0.0225-0.05492 0.0374-0.05473 0.0274-0.05448 0.0252-0.0097-0.01 0.02614-0.0212 0.04236-0.0334 0.052-0.0374zm5.385 0.0821c0.0075 5e-3 -1.12e-4 0.0324-0.01506 0.0573-0.0299 0.0498-0.03502 0.0347-0.01264-0.0301 0.01-0.0225 0.02281-0.0347 0.0277-0.0272zm-0.05249 0.122c0.0075 5e-3 2.66e-4 0.0371-0.01215 0.0695-0.01251 0.0323-0.02527 0.0475-0.02527 0.0301-0.0028-0.0374 0.02491-0.112 0.03742-0.0996zm-0.09671 0.2517c0.0075 5e-3 -1.12e-4 0.0319-0.01506 0.0569-0.0299 0.0498-0.03511 0.0352-0.01264-0.0296 0.01-0.0225 0.02281-0.0347 0.0277-0.0272zm-3.367 0.0423c0.0047-2e-3 0.02639 0.0299 0.06123 0.0996h4.85e-4c0.02981 0.0573 0.04979 0.1068 0.04471 0.1118-0.0075 5e-3 -0.03482-0.0423-0.06463-0.102-0.03362-0.0697-0.04645-0.1069-0.04179-0.1094zm3.319 0.0846c0.0075 8e-3 3.88e-4 0.0273-0.01701 0.0447h-4.87e-4c-0.02492 0.0225-0.0271 0.0198-0.01215-0.0151 0.0075-0.0249 0.02222-0.0372 0.02965-0.0296zm-5.729 0.0501c0.0075 8e-3 3.88e-4 0.0273-0.01701 0.0447-0.02492 0.0224-0.02759 0.0198-0.01263-0.0151 0.0075-0.0249 0.02231-0.0372 0.02964-0.0296zm5.679 0.0471c0.0056 5e-3 -0.01018 0.0446-0.03256 0.087-0.05229 0.1071-0.07221 0.0974-0.01993-0.01 0.02248-0.0474 0.04496-0.0823 0.05249-0.0773zm-5.743 0.0403c0.0021 0 0.0054 5e-3 0.0092 0.0165 0.0075 0.0174-1.12e-4 0.0499-0.01507 0.0748-0.02746 0.0423-0.02757 0.0423-0.01506 0 0.0075-0.0249 0.01505-0.0599 0.01749-0.0748 0-0.0112 0.0013-0.0165 0.0034-0.0165zm2.617 0.0792c0.0047 2e-3 0.01129 9e-3 0.01749 0.0194 0.01251 0.0199 0.02479 0.0473 0.02479 0.0622v4.8e-4c0 0.0124-0.01228 7e-3 -0.02479-0.0126-0.01241-0.0198-0.02527-0.0497-0.02527-0.0622 0-7e-3 0.0031-0.01 0.0078-7e-3zm-2.655 0.0792c0.0075 5e-3 3.74e-4 0.0324-0.01458 0.0573-0.02981 0.0498-0.03502 0.0351-0.01264-0.0296 0.01-0.0225 0.02223-0.0352 0.02721-0.0277zm5.682 3e-3c0.0075 8e-3 -9.7e-5 0.0273-0.0175 0.0447-0.02492 0.0225-0.02759 0.0197-0.01264-0.0151 0.0075-0.0249 0.0228-0.0372 0.03013-0.0297zm-2.976 0.0423c0.0047 2e-3 0.01076 9e-3 0.01701 0.0194 0.01241 0.0199 0.02479 0.0477 0.02479 0.0627 0 0.0125-0.01237 7e-3 -0.02479-0.0126-0.01251-0.0198-0.02478-0.0497-0.02478-0.0622 0-7e-3 0.0031-0.01 0.0078-7e-3zm-2.757 0.1021c0.0075 8e-3 0.01006 0.0296 0.0029 0.0471h-4.87e-4c-0.0075 0.0198-0.01506 0.0124-0.01506-0.0151-0.0028-0.0274 0.0058-0.042 0.01263-0.0321zm2.808 0.0321c0.01201 8e-3 0.03656 0.0617 0.03839 0.0972 0 0.0124-0.0099 8e-3 -0.02236-0.0122-0.01251-0.02-0.02284-0.0549-0.02284-0.0748 0-0.01 0.0028-0.0128 0.0068-0.0102zm0.0486 0.14c0.0047 2e-3 0.01076 9e-3 0.01701 0.0194 0.01241 0.0199 0.02479 0.0473 0.02479 0.0622 0 0.0125-0.01228 8e-3 -0.02479-0.0122-0.01251-0.0199-0.02479-0.0498-0.02479-0.0622 0-7e-3 0.0031-0.01 0.0078-7e-3zm0.05103 0.1341c0.01201 8e-3 0.03607 0.0617 0.0379 0.0972-3.99e-4 0.0115-0.0101 7e-3 -0.02235-0.0126-0.01241-0.0199-0.02236-0.0548-0.02236-0.0748 0-0.01 0.0028-0.0123 0.0068-0.01zm0.05151 0.1356c0.0065 3e-3 0.01555 0.0165 0.0243 0.0389 0.0075 0.0198 0.0045 0.0297-0.01021 0.0224-0.01495-8e-3 -0.02478-0.0249-0.02478-0.0399 0-0.0174 0.0042-0.0245 0.01069-0.0214zm2.323 0.0768c0.0055-3e-3 0.0068-6e-4 0.0068 4e-3 0 3e-3 -0.09203 0.0945-0.2041 0.2041l-0.2065 0.1992 0.1992-0.2065c0.1382-0.142 0.1882-0.193 0.2046-0.2012zm-2.108 0.3455c0.0075 0 0.0575 0.0447 0.1098 0.0996 0.05229 0.0547 0.09208 0.0996 0.08456 0.0996-0.0075 0-0.0575-0.0448-0.1098-0.0996-0.05229-0.0548-0.09208-0.0996-0.08456-0.0996zm1.679 0.0525c0.01495 0-0.0149 0.0197-0.06221 0.0471-0.0474 0.0274-0.09683 0.0476-0.1118 0.0476-0.01241 0 0.0149-0.0202 0.0622-0.0476 0.0474-0.0274 0.09932-0.0471 0.1118-0.0471zm-0.224 0.0972c0.01495 0 0.0078 0.0123-0.01215 0.0248-0.01994 0.0125-0.04735 0.0248-0.0622 0.0248-0.01251 0-0.0078-0.0124 0.01215-0.0248 0.01994-0.0125 0.04979-0.0248 0.0622-0.0248zm-0.1259 0.052c0.01276 0 0.01124 7e-3 -0.01118 0.0224-0.01994 0.0124-0.05481 0.0229-0.07484 0.0229-0.02492 0-0.01972-8e-3 0.01264-0.0229 0.03362-0.0149 0.06062-0.0224 0.07338-0.0224zm-1.02 0.0476c0.01495 0 0.04275 0.0123 0.06269 0.0248 0.01993 0.0124 0.0271 0.0248 0.01215 0.0248-0.01241 0-0.04217-0.0124-0.0622-0.0248-0.01984-0.0125-0.02514-0.0248-0.01264-0.0248zm0.8597 2e-3c0.02248 0 0.01971 0.01-0.01263 0.0223-0.02746 0.0124-0.06705 0.0224-0.08699 0.0224-0.02248 0-0.0202-0.01 0.01215-0.0224 0.02736-0.0125 0.06763-0.0223 0.08747-0.0223zm-0.2143 0.05c0.02675-3e-3 0.04121 5e-3 0.03256 0.0121-0.0075 8e-3 -0.03023 0.0101-0.04763 3e-3 -0.02003-8e-3 -0.01239-0.0151 0.01507-0.0151zm-0.3397 0.0151c0.09744 2e-3 0.2116 8e-3 0.2551 0.017 0.01984 5e-3 -0.05222 0.01-0.1618 0.01-0.1096 0-0.2219-7e-3 -0.2493-0.017-0.02238-9e-3 0.05856-0.0116 0.156-0.01z" stroke-width=".002491"/>
   <path id="puzzle-ul" d="m9.131 259.7c0.3102 0.2518 0.6845 0.4953 1.009 0.6608 0.2504 0.1252 0.7707 0.3144 0.7777 0.2824 0.0016-0.0125 0.0165-0.0196 0.03059-0.0167 0.01671 6e-3 0.01669 8e-3 0.0016 0.0125-0.04036 0.01-0.01665 0.025 0.06821 0.0431 0.04178 0.0112 0.07795 0.0112 0.08067 0 0.0016-0.01 0.02368-0.0154 0.04727-0.0111 0.03898 3e-3 0.03891 7e-3 -0.0016 0.01-0.0695 8e-3 -0.02468 0.031 0.07377 0.0348 0.05011 3e-3 0.07653 2e-3 0.05989-4e-3 -0.02087-8e-3 -0.01256-0.0126 0.02505-0.0138 0.06405-7e-3 0.09323 8e-3 0.032 0.0126-0.06123 7e-3 -0.01671 0.0306 0.04589 0.0264 0.03619-3e-3 0.04452-7e-3 0.02361-0.0125-0.01664-6e-3 0.07097-0.0126 0.1962-0.0154 0.1252-3e-3 0.2295-2e-3 0.2295 4e-3 0.0028 7e-3 -0.08904 0.0113-0.2031 0.0112-0.1141-2e-5 -0.2017 8e-3 -0.192 0.0166 0.0084 8e-3 0.09877 0.0125 0.2017 0.01 0.1614-6e-3 0.2128-0.0179 0.3854-0.0933 0.6149-0.2699 0.8055-0.5774 0.6427-1.032-0.04032-0.1127-0.2824-0.658-0.3186-0.7193-0.01806-0.0291-0.02079-0.0291-0.0167 3e-3 0.0045 0.032 0.0029 0.0333-0.0097 0.01-0.0085-0.0136-0.0067-0.0348 0.0045-0.046 0.0097-0.01 0.0084-0.0334-0.0045-0.0514-0.01944-0.0279-0.02342-0.0266-0.01803 4e-3 0.0045 0.0319 0.0029 0.0333-0.0097 0.01-0.0085-0.0137-0.0084-0.0335 0.0016-0.0432 0.0084-8e-3 0.0045-0.0598-0.01104-0.1113-0.032-0.1155-0.04456-0.1336-0.03757-0.0486l0.0052 0.0639-0.01528-0.0542c-0.0067-0.032-0.0084-0.0614-0.0016-0.0682 0.02089-0.0209 0.02506-0.0696 0.0097-0.0849-0.0084-8e-3 -0.0167 3e-3 -0.0208 0.0291-0.0029 0.0222-0.0067 0.01-0.0097-0.0292-0.0045-0.0794 0.0052-0.1085 0.01391-0.0417 0.0045 0.0238 0.0081 0.0114 0.01115-0.0278 0.0045-0.0765-0.0029-0.1002-0.0154-0.0543-0.0029 0.0139-0.0086-6e-3 -0.0097-0.0432-0.0016-0.0403 0-0.0751 0.0029-0.078 0.0044-3e-3 0.0084 0.0167 0.0097 0.0459 0.0029 0.0724 0.01955 0.0502 0.03335-0.0445 0.03201-0.2212 0.1405-0.416 0.3506-0.6288 0.1503-0.1502 0.2379-0.2073 0.4563-0.2922 0.03062-0.0113 0.03064-0.0167 0.0067-0.0238-0.01806-3e-3 -0.02229-8e-3 -0.0067-0.01 0.01389 1e-5 0.032 8e-3 0.04041 0.0153 0.0067 8e-3 0.02504 8e-3 0.0403 2e-3 0.01671-8e-3 0.01529-0.0154-0.0029-0.0194-0.02095-4e-3 -0.02087-0.01-0.0029-0.0139 0.01663-3e-3 0.02918 2e-3 0.02918 0.01 0 0.0194 0.06261 0.0264 0.08074 8e-3 0.0084-8e-3 -0.0052-0.0166-0.02921-0.0209-0.0222-3e-3 -0.0099-8e-3 0.0292-0.01 0.07928-4e-3 0.1085 6e-3 0.04042 0.0154-0.03479 4e-3 -0.03342 6e-3 0.01371 8e-3 0.03201 4e-3 0.05984-4e-3 0.06255-0.0154 0.0016-0.01 0.0097-0.01 0.01945 3e-3 0.0073 0.0125 0.01934 0.0141 0.02786 3e-3 0.0067-0.01 0.03058-0.0167 0.05573-0.0139 0.03756 4e-3 0.03758 8e-3 -0.0029 0.0113-0.02228 3e-3 -0.0362 0.0112-0.02785 0.0194 0.01671 0.0167 0.08211 0.0125 0.08206-8e-3 0-8e-3 0.01954-0.0112 0.04319-0.01 0.04032 4e-3 0.0403 8e-3 0 0.0112-0.05283 7e-3 -0.04169 0.0194 0.0318 0.0349 0.032 8e-3 0.05982 4e-3 0.06123-7e-3 0.0029-0.0113 0.01663-0.0167 0.03061-0.0139 0.01664 6e-3 0.01675 8e-3 0.0016 0.0125-0.03757 0.01-0.02242 0.0193 0.07795 0.0528 0.1308 0.0417 0.3297 0.1433 0.4786 0.2449 0.1141 0.078 0.4577 0.416 2.631 2.589l2.499 2.499 0.7097-0.715c0.3897-0.395 1.525-1.536 2.521-2.538l1.813-1.818 0.08627-0.1614c0.1016-0.1878 0.217-0.5064 0.1878-0.5134-0.01118-3e-3 -0.01828-0.0235-0.0139-0.0472 0.0029-0.0389 0.0059-0.0389 0.0098 2e-3 0.0029 0.0223 0.01104 0.036 0.01944 0.0279 0.01665-0.0166 0.01257-0.0821-0.0067-0.082-0.0084 0-0.01104-0.0195-0.0098-0.043 0.0045-0.0403 0.0067-0.0403 0.01115 0 0.0084 0.0807 0.02783 0.0194 0.02919-0.0987 0.0016-0.1183-0.01947-0.1837-0.03063-0.1002-0.0059 0.036-0.0059 0.036-0.0075 3e-3 -0.0016-0.0208 0.0045-0.046 0.01257-0.0543 0.0084-8e-3 0.0096-0.0264 0.0029-0.0417-0.0084-0.0167-0.0153-0.0153-0.01944 3e-3 -0.0059 0.0194-0.0097 0.021-0.0139 3e-3 -0.0029-0.014 0.0029-0.0279 0.0139-0.0306 0.02917-8e-3 -0.02087-0.1516-0.09321-0.2741-0.08489-0.1433-0.2977-0.3506-0.4591-0.448-0.1489-0.0877-0.2601-0.1294-0.2685-0.0987-0.0029 0.0113-0.01664 0.0166-0.03061 0.0139-0.01814-4e-3 -0.01675-8e-3 0.0029-0.0139 0.01813-4e-3 0.01949-0.0112 0.0029-0.0194-0.01527-8e-3 -0.03342-7e-3 -0.04041 2e-3 -0.0085 8e-3 -0.02646 0.0154-0.04041 0.0154-0.0139 8e-5 -0.01257-4e-3 0.0029-8e-3 0.06121-0.0166-0.0029-0.0306-0.128-0.0306-0.1266 2e-3 -0.1837 0.0139-0.1267 0.0291 0.01671 6e-3 0.0181 0.01 0.0044 0.01-0.01391 6e-5 -0.032-8e-3 -0.04041-0.0154-0.02645-0.0264-0.3311 0.078-0.6233 0.2115-0.1475 0.0668-0.3033 0.1336-0.345 0.1475-0.08486 0.0291-0.1364 0.0668-0.07649 0.057 0.03059-6e-3 0.032-4e-3 0.0084 8e-3 -0.01429 8e-3 -0.03345 8e-3 -0.04182-2e-5 -0.01798-0.018-0.1669 0.0112-0.1683 0.0321 0.0016 8e-3 0.03475 4e-3 0.07654-4e-3 0.04036-0.01 0.06963-0.0111 0.06397-7e-3 -0.02087 0.0209-0.1502 0.0361-0.1558 0.0194-0.0045-0.021-0.1725-0.0222-0.1906-4e-3 -0.0067 8e-3 -0.02086 0.0125-0.03062 0.0113-0.01115-1e-5 -0.0074-4e-3 0.0067-8e-3 0.03757-0.01 0.03335-0.0139-0.07516-0.0501-0.1238-0.0432-0.3005-0.2031-0.3979-0.3589-0.04042-0.0654-0.1141-0.2087-0.1614-0.32-0.08345-0.1892-0.08763-0.2156-0.08905-0.4285 0.0016-0.1238-0.0045-0.2295-0.01104-0.2337-0.0074-4e-3 -0.01115-0.0335-0.0084-0.064l0.0045-0.0571 0.0045 0.057c0.0029 0.0335 0.01104 0.0529 0.0195 0.0445 0.01806-0.018 0.01389-0.1113-0.0067-0.1099-0.0084 0-0.0084-0.036 0-0.0779l0.01536-0.0765-0.0052 0.078c-0.0084 0.1224 0.01116 0.0752 0.05422-0.1322 0.1475-0.6901 0.5523-1.429 1.144-2.078 0.2768-0.3047 0.5094-0.5062 0.9043-0.793 0.3631-0.2602 0.6024-0.4132 0.85-0.5412 0.1934-0.0988 0.5203-0.2337 0.672-0.2741 0.1099-0.0291 0.135-0.0458 0.0946-0.0557-0.0167-6e-3 -0.0181-0.01-0.0043-0.01 0.01398 0 0.0306 6e-3 0.03618 0.0112 0.0153 0.0154 0.2337-0.0306 0.2351-0.0486-0.0016-8e-3 -0.03757-4e-3 -0.08068 6e-3 -0.07375 0.018-0.1308 0.0166-0.06534-2e-3 0.07931-0.0209 0.1586-0.0278 0.16-0.0153 0 0.0194 0.06254 0.0264 0.08068 8e-3 0.0084-8e-3 -0.0052-0.0166-0.02921-0.0209-0.03891-3e-3 -0.039-7e-3 0.0016-0.01 0.02369-2e-3 0.04315 2e-3 0.04316 0.01 0 0.0194 0.06539 0.0238 0.08211 8e-3 0.0085-8e-3 -0.0052-0.0167-0.02921-0.0207-0.03899-3e-3 -0.039-7e-3 0-8e-3 0.0236-4e-3 0.04589 2e-3 0.04734 0.0112 0.0028 0.0113 0.06119 0.0138 0.1308 8e-3 0.2852-0.0264 0.5259 0.0389 0.8445 0.2295 0.2073 0.1238 0.3256 0.2559 0.4076 0.4494 0.01115 0.0307 0.01665 0.0306 0.02361 8e-3 0.0045-0.018 0.0084-0.0222 0.0099-8e-3 -4e-6 0.0139-0.0045 0.0292-0.0084 0.0335-0.01529 0.0154-0.01104 0.2588 0.0045 0.2741 0.01389 0.0138-0.03901 0.2198-0.06404 0.2421-0.0085 8e-3 0.0029-0.0417 0.02645-0.11 0.05422-0.1711 0.02919-0.1544-0.03204 0.0209-0.02778 0.0806-0.1057 0.2643-0.1725 0.4118-0.1683 0.3659-0.2713 0.6831-0.2268 0.6942 0.0098 2e-3 0.01665 0.0612 0.0153 0.1294-0.0016 0.0682-0.0067 0.1099-0.01247 0.0933-0.0067-0.0291-0.0084-0.0278-0.01272 0.01-0.0052 0.0472 0.01814 0.0821 0.02779 0.0417 0.0045-0.0153 0.0067-0.0153 0.01246 2e-3 0.0029 0.0138-0.0029 0.028-0.0139 0.0306-0.03345 8e-3 0.04451 0.2115 0.128 0.3423 0.1155 0.1766 0.3158 0.3714 0.4619 0.4452 0.1377 0.0709 0.2908 0.1155 0.3075 0.0905 0.0067-0.01 0.03762-0.0153 0.06818-0.0125l0.05701 4e-3 -0.0585 7e-3c-0.09737 8e-3 -0.03891 0.0278 0.08489 0.0291 0.1238 2e-3 0.1892-0.0223 0.08628-0.0306l-0.05702-4e-3 0.05698-4e-3c0.03059-3e-3 0.06121 3e-3 0.06679 0.0111 0.0067 0.01 0.02363 0.0125 0.039 7e-3 0.01671-8e-3 0.01529-0.0153-0.0045-0.021-0.01814-4e-3 -0.02087-0.01-0.0067-0.01 0.01389 1e-5 0.032 8e-3 0.04041 0.0153 0.0067 8e-3 0.02504 8e-3 0.04036 2e-3 0.0167-8e-3 0.01529-0.0153-0.0029-0.0194-0.01954-7e-3 -0.02089-0.01-0.0029-0.0139 0.01389-3e-3 0.02921 4e-3 0.03055 0.0167 0.0067 0.0291 0.2323-0.057 0.4229-0.1614l0.1574-0.0872 5.186-5.186-14.15-14.15-14.16 14.16 2.599 2.599c2.586 2.586 2.6 2.6 2.657 2.716 0.03336 0.064 0.07929 0.1655 0.103 0.2253 0.02228 0.0612 0.05284 0.1141 0.06682 0.1168 0.01116 3e-3 0.01129 8e-3 0 0.0111-0.01399 3e-3 -0.01944 0.0306-0.01256 0.0626 0.01672 0.0806 0.03619 0.089 0.02787 0.0139-0.0045-0.0598-0.0045-0.0598 0.0085-0.0137 0.0067 0.0291 0.0052 0.0584 5.3e-5 0.0668-0.01949 0.0194-0.0237 0.0737-0.0067 0.0905 0.0084 8e-3 0.01666-7e-3 0.01943-0.0279 0.0059-0.036 0.0067-0.0348 0.0095 0.0128 0.0045 0.0319-0.0029 0.0583-0.0112 0.0612-0.0087 2e-3 -0.01527 0.0264-0.01391 0.0557 0.0016 0.0291 0.0067 0.0488 0.01391 0.0417 0.01664-0.0165 0.01944 0.0614 0.0045 0.1405-0.0125 0.057-0.014 0.0501-0.01104-0.0361l0.0052-0.1058-0.0237 0.1099c-0.03477 0.1684-0.09321 0.3102-0.1808 0.434-0.1349 0.1906-0.4132 0.4021-0.6122 0.4675-0.09459 0.0306-0.1168 0.0472-0.0487 0.0402 0.04452-7e-3 0.04591-4e-3 5.5e-6 0.0112-0.02778 8e-3 -0.04872 0.01-0.04868 2e-3 -0.00155-0.021-0.06405-0.0278-0.0821-0.01-0.0084 8e-3 0.00521 0.0167 0.02783 0.0194 0.04032 4e-3 0.04033 8e-3 0.00137 0.01-0.02365 4e-3 -0.04589-2e-3 -0.0459-0.01-0.00521-0.0194-0.2407-0.021-0.2518-2e-3 -0.00366 8e-3 -0.01708 0.0112-0.02642 0.01-0.01114-3e-5 -0.00731-4e-3 0.00668-8e-3 0.03891-0.0112 0.01964-0.0249-0.05283-0.0361-0.1197-0.0222-0.3562-0.1085-0.6233-0.2337-0.3074-0.1405-0.5287-0.2198-0.5523-0.1962-0.00837 8e-3 -0.02646 0.0154-0.04035 0.0154-0.01388-2e-5 -0.01256-4e-3 0.00294-8e-3 0.04177-0.0113 0.00973-0.0348-0.04035-0.0291-0.02368 2e-3 -0.04311 8e-3 -0.04448 0.0112 8.888e-4 3e-3 -8.889e-4 4e-3 -0.00154 2e-3 -5.254e-4 -7e-3 -0.01949-0.0112-0.04314-0.0126-0.04739-7e-3 -0.08205 0.018-0.0417 0.0279 0.01521 4e-3 0.01538 8e-3 -0.00147 0.0125-0.01398 3e-3 -0.02927-4e-3 -0.03062-0.0167-0.0028-0.0113-0.04868-4e-3 -0.1029 0.0167-0.192 0.0724-0.3659 0.2908-0.5287 0.6678-0.06812 0.1517-0.08348 0.217-0.08903 0.3673-0.00446 0.1015 0 0.192 0.00832 0.2003 0.00832 8e-3 0.01669-0.0668 0.01671-0.1697 0.00297-0.1697 0.03061-0.3256 0.06122-0.3256 0.00678-2e-3 0 0.0279-0.01399 0.064-0.01528 0.0348-0.03061 0.1586-0.03202 0.2768-0.00148 0.1155-0.00832 0.2059-0.0153 0.199-0.0052-7e-3 -0.01256 0.0126-0.01391 0.0417-0.00444 0.0654 0.02228 0.0974 0.02918 0.0376 0.00446-0.0404 0.00668-0.0402 0.01114 1e-5 0.00147 0.0237-0.00148 0.0432-0.00983 0.0432-0.01949 3e-5 -0.02363 0.0655-0.00668 0.0821 0.00832 8e-3 0.01662-6e-3 0.01944-0.0279 0.00669-0.0376 0.00669-0.0376 0.00856-6e-3 0.00148 0.0209-0.00446 0.046-0.0125 0.0543-0.00837 8e-3 -0.00972 0.0264-0.00299 0.0417 0.0083 0.0167 0.01531 0.0153 0.02086-4e-3 0.00446-0.0181 0.00973-0.0209 0.00993-8e-3 -5.25e-5 0.014-0.00668 0.0319-0.01398 0.039-0.00834 8e-3 -0.00972 0.0264-0.00298 0.0417 0.00837 0.0168 0.01531 0.0153 0.01944-3e-3 0.00595-0.0194 0.00973-0.0209 0.01398-3e-3 0.00298 0.0138-0.00299 0.028-0.01391 0.0306-0.02502 6e-3 0.05565 0.2894 0.1572 0.5523 0.1489 0.3826 0.3144 0.6734 0.6886 1.203 0.2212 0.3102 0.2601 0.3575 0.5802 0.6859 0.189 0.1922 0.3713 0.3744 0.405 0.4019zm-0.1837-0.2142c0.02347 0.0182 0.06105 0.0558 0.08346 0.0834 0.02238 0.0277 0.00298 0.0139-0.04306-0.032-0.04591-0.046-0.06414-0.0694-0.04033-0.0514zm-0.3896-0.3896c0.02353 0.0183 0.06105 0.0558 0.08347 0.0836 0.02238 0.0277 0.00298 0.0138-0.04306-0.0321-0.04591-0.046-0.06414-0.0694-0.04034-0.0514zm0.5635 0.5356c0.0207 0.0154 0.04855 0.0432 0.06262 0.0626 0.01546 0.0206-0.00147 0.01-0.03613-0.025-0.03476-0.0348-0.04607-0.0512-0.02643-0.0376zm-0.6747-0.6747c0.01655 0.0113 0.04156 0.0363 0.05564 0.0557 0.01546 0.0206 0.00147 0.0125-0.02921-0.018-0.03214-0.029-0.04296-0.0462-0.02643-0.0376zm0.8862 0.8472c0.03612 0.025 0.08203 0.0598 0.1001 0.0806 0.04712 0.0502-0.06813-0.0264-0.1266-0.0821-0.03484-0.0348-0.02936-0.0346 0.02643 2e-3zm-1.045-1.042c-0.02786-0.0472-0.02642-0.0487 0.00446-0.0181 0.01946 0.0194 0.04731 0.0583 0.06546 0.0877 0.02777 0.0472 0.02647 0.0486-0.00445 0.018-0.01946-0.0194-0.04871-0.0598-0.06545-0.0877zm1.245 1.189c0.02505 0.0139 0.05841 0.0361 0.07368 0.0514 0.0223 0.0223 0.01829 0.0235-0.01812 4e-3 -0.02505-0.0139-0.05842-0.0361-0.07368-0.0514-0.02228-0.0223-0.01829-0.0235 0.01803-4e-3zm-1.337-1.326c0.00841 0 0.02222 0.0111 0.02806 0.0249 0.00674 0.0152-0.00149 0.0153-0.01671-1e-5 -0.01685-0.0136-0.02103-0.0263-0.01108-0.025zm-0.06262-0.0931c0.01232 8e-3 0.03184 0.0265 0.04176 0.0417 0.0097 0.0181-0.00147 0.0125-0.02357-0.01-0.02363-0.0236-0.03078-0.036-0.01805-0.0319zm1.566 1.53c0.06255 0.0319 0.09877 0.0682 0.04866 0.0486-0.02222-8e-3 -0.0515-0.0291-0.06679-0.0445-0.02229-0.0223-0.01829-0.0235 0.01803-4e-3zm-1.69-1.69c-0.02786-0.0472-0.02647-0.0486 0.00445-0.018 0.01946 0.0194 0.04731 0.0583 0.06545 0.0877 0.02786 0.0472 0.02647 0.0486-0.00446 0.0181-0.01946-0.0194-0.04871-0.0598-0.06545-0.0877zm1.843 1.788c0.01808 4e-3 0.04589 0.0209 0.06124 0.036 0.02069 0.0239 0.01964 0.0249-0.01945 6e-3 -0.06403-0.0335-0.08207-0.0514-0.04175-0.0417zm-1.955-1.955c-0.01113-0.025-0.00669-0.032 0.00595-0.0194 0.01106 0.0111 0.02778 0.0389 0.03609 0.0612 0.01108 0.025 0.00669 0.032-0.00595 0.0194-0.01106-0.0112-0.02785-0.039-0.03615-0.0612zm-0.09737-0.153c-0.01954-0.0502 0.01686-0.0137 0.04873 0.0486 0.01948 0.036 0.01814 0.0403-0.00445 0.018-0.0153-0.0153-0.03614-0.0446-0.04449-0.0668zm2.302 2.247c0.01805 3e-3 0.04318 0.018 0.05432 0.0291 0.01389 0.0139 0.0068 0.0152-0.01945 6e-3 -0.0542-0.0209-0.07649-0.0432-0.03484-0.0348zm-2.386-2.386c-0.01108-0.025-0.00669-0.032 0.00595-0.0194 0.01114 0.0112 0.02784 0.0391 0.03609 0.0612 0.01114 0.025 0.00668 0.032-0.00518 0.0194-0.01114-0.0112-0.02784-0.039-0.03618-0.0612zm2.497 2.442c0.01808 4e-3 0.0404 0.0126 0.04874 0.0209 0.0067 8e-3 -0.0029 0.0113-0.02086 8e-3 -0.01813-4e-3 -0.04175-0.0138-0.04874-0.0208-0.0084-8e-3 0.0029-0.0113 0.02084-8e-3zm0.1113 0.0557c0.01805 3e-3 0.04035 0.0125 0.04868 0.0209 0.0067 8e-3 -0.0029 0.0112-0.02086 8e-3 -0.01813-4e-3 -0.04175-0.0139-0.04871-0.0209-0.0083-8e-3 0.0029-0.0112 0.02084-8e-3zm-2.727-2.727c-0.00832-0.0417 0.01408-0.0193 0.03484 0.0349 0.00973 0.0264 0.0083 0.0335-0.00595 0.0194-0.01114-0.0111-0.02501-0.036-0.02919-0.0543zm-0.04173-0.0974c-0.00448-0.018-0.00148-0.0291 0.00668-0.0209 0.00668 8e-3 0.01671 0.0306 0.02088 0.0487 0.00446 0.0181-5.4e-6 0.0279-0.00668 0.0209-0.00832-8e-3 -0.01665-0.0306-0.02088-0.0486zm-0.05563-0.1113c-0.00446-0.018-0.00148-0.0291 0.00668-0.0209 0.00668 8e-3 0.01665 0.0306 0.02092 0.0486 0.00446 0.0181 0 0.0279-0.00668 0.0209-0.00832-8e-3 -0.01665-0.0306-0.02088-0.0487zm3.082 3.043c0.02642 2e-3 0.2295 0.0737 0.2226 0.0807-0.0084 8e-3 -0.2017-0.0514-0.2212-0.0683-0.0067-8e-3 -0.0073-0.0125-0.0016-0.0125zm-3.105-3.144c0.00841 0 0.0153 0.0153 0.0153 0.0348-0.00147 0.0264-0.00446 0.0264-0.01529-2e-3 -0.0097-0.0181-0.0084-0.0335-5.24e-5 -0.0334zm-0.04173-0.0974c0.00841 0 0.0153 0.0153 0.0153 0.0348-0.00148 0.0264-0.00448 0.0264-0.01531-2e-3 -0.0097-0.0181-0.00842-0.0335-5.3e-6 -0.0335zm-0.02779-0.0834c0.00841 0 0.0153 0.0153 0.0153 0.0348-0.00147 0.0264-0.00443 0.0264-0.01531-2e-3 -0.0097-0.0181-0.00842-0.0335-5.25e-5 -0.0333zm-0.02788-0.0834c0.00841 0 0.0153 0.0154 0.0153 0.0348-0.00147 0.0264-0.00446 0.0264-0.01529-2e-3 -0.0097-0.0181-0.00842-0.0335-5.2e-6 -0.0335zm3.606 3.531c0.0023-3e-3 0.02643 2e-3 0.05148 0.01 0.04584 0.0154 0.04451 0.0167 0 0.0112-0.05283-6e-3 -0.06261-0.01-0.05148-0.0209zm-3.658-3.716c0.00244-3e-3 0.01256 0.0126 0.01948 0.036 0.0067 0.0236 0.0097 0.046 0.00516 0.0502-0.00244 3e-3 -0.01256-0.0126-0.01948-0.036-0.0067-0.0236-0.00976-0.046-0.00518-0.0502zm4.619 3.726c0.04451-0.0112 0.03891 4e-5 -0.0097 0.0238-0.01813 8e-3 -0.03204 8e-3 -0.03061-4e-5 -0.0016-8e-3 0.01814-0.0181 0.04032-0.0236zm0.1126-0.0514c0.03061-0.0138 0.1085-0.0528 0.1725-0.089 0.06405-0.0361 0.1015-0.0514 0.08481-0.0349-0.01371 0.017-0.08904 0.0612-0.1656 0.0987-0.07513 0.036-0.1391 0.0695-0.1419 0.0724-0.0023 3e-3 -0.0052 0-0.0052-8e-3s0.025-0.025 0.05563-0.0389zm-4.669-4.847c0.02363-0.0237-0.01529 0.0793-0.05289 0.1447-0.01387 0.0223-0.01256 4e-3 0.00448-0.0403 0.01529-0.0458 0.03751-0.0933 0.04866-0.1044zm0.07516-0.1252c0.01529-8e-3 0.01531 2e-3 0 0.0167-0.01371 0.0169-0.02626 0.021-0.02501 0.0111 0-8e-3 0.01106-0.0222 0.0249-0.028zm0.1753-0.2365c0.07652-0.0766 0.1405-0.1266 0.1795-0.1405 0.04732-0.0167 0.05149-0.0154 0.01672 3e-3 -0.02512 0.0139-0.1154 0.096-0.2017 0.1823-0.08624 0.0862-0.1475 0.1391-0.1336 0.1168 0.01257-0.0238 0.07515-0.0946 0.1391-0.1614zm4.771 5.001c0.01813-0.01 0.01246 2e-3 -0.0098 0.0236-0.02363 0.0236-0.03604 0.0308-0.03194 0.018 0.0075-0.0124 0.02658-0.0318 0.04176-0.0417zm0.2031-0.2226c0.03478-0.0486 0.03751-0.0514 0.02086-0.01-0.01115 0.0279-0.0543 0.0905-0.0974 0.1391-0.07931 0.0905-0.07931 0.0905-0.02086 0.01 0.03056-0.0446 0.07653-0.1071 0.09736-0.1392zm0.06404-0.3394c-0.0045-0.0458-0.0016-0.0626 0.0067-0.0376 0.01533 0.046 0.01115 0.2504-0.0067 0.2685-0.0052 7e-3 -0.0067-0.0264-0.0016-0.0711 0.0067-0.0431 0.0067-0.1154 0.0016-0.16zm-0.03629-0.178c0.0023-3e-3 0.01256 0.0126 0.01948 0.036 0.0067 0.0238 0.0097 0.046 0.0052 0.0502-0.0023 3e-3 -0.01256-0.0126-0.01949-0.0361-0.0067-0.0237-0.0097-0.046-0.0059-0.0501zm-4.44-4.436c0.00244-3e-3 0.02643 2e-3 0.05142 0.01 0.04591 0.0154 0.04456 0.0167 5.4e-6 0.0112-0.05283-6e-3 -0.06261-0.01-0.05148-0.0209zm4.403 4.361c-0.0045-0.018-0.0016-0.0291 0.0067-0.021 0.0067 8e-3 0.01666 0.0306 0.02092 0.0487 0.0045 0.018 0 0.0279-0.0067 0.0209-0.0084-8e-3 -0.0167-0.0306-0.02087-0.0486zm-4.229-4.313c0.04178 0.0112 0.08074 0.0278 0.08907 0.036 0.00668 8e-3 -0.01944 3e-3 -0.06119-8e-3 -0.04172-0.0111-0.08212-0.0291-0.08908-0.036-0.00832-8e-3 0.01944-3e-3 0.06119 8e-3zm4.146 4.118c-0.0045-0.018-0.0016-0.0291 0.0067-0.0209 0.0067 8e-3 0.01665 0.0306 0.02092 0.0488 0.0045 0.0179 0 0.0279-0.0067 0.0208-0.0084-8e-3 -0.01664-0.0306-0.02098-0.0487zm-0.05563-0.1113c-0.0084-0.0417 0.01413-0.0194 0.03482 0.0349 0.0097 0.0264 0.0084 0.0335-0.0059 0.0194-0.01115-0.0112-0.02504-0.0361-0.02918-0.0543zm-3.951-3.951c0.01802 4e-3 0.0404 0.0126 0.04868 0.0209 0.00668 8e-3 -3e-3 0.0113-0.02086 8e-3 -0.01805-3e-3 -0.04176-0.0139-0.04868-0.0209-0.00832-8e-3 3e-3 -0.0113 0.02086-8e-3zm3.909 3.854c-0.0045-0.018-0.0016-0.0291 0.0067-0.0209 0.0067 8e-3 0.01664 0.0306 0.02086 0.0487 0.0045 0.0181 0 0.0278-0.0067 0.021-0.0084-8e-3 -0.0167-0.0306-0.02087-0.0486zm-0.04173-0.0974c-0.0045-0.0181-0.0016-0.0291 0.0067-0.0209 0.0067 8e-3 0.0167 0.0306 0.02086 0.0486 0.0045 0.0181 0 0.0278-0.0067 0.0209-0.0084-8e-3 -0.01671-0.0306-0.02087-0.0487zm-3.659-3.659c0.01813 4e-3 0.0404 0.0126 0.04868 0.0207 0.00668 8e-3 -0.00294 0.0111-0.02086 8e-3 -0.01805-4e-3 -0.04176-0.0139-0.04868-0.0209-0.00832-8e-3 0.00294-0.0112 0.0209-8e-3zm3.617 3.562c-0.0045-0.0182-0.0016-0.0292 0.0067-0.0209 0.0067 8e-3 0.01671 0.0306 0.02086 0.0486 0.0045 0.0181 0 0.0279-0.0067 0.0209-0.0084-8e-3 -0.01665-0.0306-0.02086-0.0486zm-3.506-3.506c0.01813 4e-3 0.04041 0.0126 0.04874 0.0209 0.00668 8e-3 -0.00294 0.0111-0.02086 8e-3 -0.01805-3e-3 -0.04176-0.0139-0.04874-0.0209-0.00832-8e-3 3e-3 -0.0113 0.02086-8e-3zm0.1586 0.064c0.00244-3e-3 0.02087 4e-3 0.04032 0.0154 0.01949 0.0111 0.02658 0.0234 0.01394 0.025-0.01945 6e-3 -0.06535-0.0291-0.05422-0.0403zm3.257 3.184c0.0045-0.0126 0.0113-8e-3 0.01804 8e-3 0.0153 0.0348 0.0097 0.0487-0.0097 0.0291-0.0084-8e-3 -0.01248-0.0236-0.0084-0.036zm-3.159-3.143c0.00244-3e-3 0.01944 0 0.03619 8e-3 0.01534 8e-3 0.01928 0.0139 0.00669 0.018-0.02228 6e-3 -0.0542-0.0154-0.04314-0.0264zm0.08349 0.0278c0.00244-3e-3 0.01944 1e-5 0.03619 8e-3 0.01534 8e-3 0.01928 0.0139 0.00668 0.0181-0.02228 6e-3 -0.05426-0.0153-0.04314-0.0264zm0.08485 0.0264c0.00244-3e-3 0.02643 2e-3 0.05148 0.01 0.04591 0.0154 0.04456 0.0167 5.2e-6 0.0112-0.05283-6e-3 -0.06261-0.01-0.05148-0.0209zm0.2616 0.0445c0.00241-3e-3 0.03058-3e-3 0.06255-2e-3l0.05844 7e-3 -0.05848 6e-3c-0.05421 4e-3 -0.07377 2e-3 -0.0626-0.01zm2.76 2.337c0.0084 0 0.0099 0.0152 0 0.0332-0.01116 0.0279-0.01398 0.0279-0.01529 2e-3 0-0.0194 0.0067-0.0349 0.01527-0.0347zm-2.311-2.428c0.0445-0.0113 0.03891 5e-5 -0.00966 0.0237-0.01813 8e-3 -0.03199 8e-3 -0.03067 0-0.00155-8e-3 0.01805-0.018 0.04033-0.0237zm0.1029-0.0557c0.02506-0.0167 0.04591-0.0237 0.04733-0.0167-0.0016 8e-3 -0.02206 0.0251-0.04733 0.0389-0.02511 0.0167-0.04588 0.0237-0.04734 0.0167 1e-3 -8e-3 0.02206-0.0251 0.04734-0.0389zm2.316 2.294c0.01399-6e-3 0.0096 4e-3 -0.0097 0.0238-0.01949 0.0194-0.02963 0.0233-0.02512 0.0112 0.0075-0.0123 0.02384-0.029 0.03484-0.0348zm0.06263-0.0905c0.01814-0.01 0.01255 2e-3 -0.0097 0.0238-0.02363 0.0237-0.03656 0.0302-0.03205 0.018 0.0075-0.0123 0.02658-0.0319 0.04176-0.0417zm-2.123-2.396c0.1405-0.1238 0.1572-0.135 0.08206-0.057-0.09059 0.0958-0.2601 0.238-0.2588 0.2198-8.89e-4 -3e-3 0.08087-0.0778 0.1767-0.1628zm2.311 2.18c0.03656-0.0302 0.01256-2e-3 -0.05291 0.064-0.06537 0.0655-0.09445 0.0892-0.06537 0.0543 0.03084-0.036 0.08365-0.0889 0.1183-0.1183zm0.2031-0.1419c0.1363-0.0751 0.128-0.0528-0.0097 0.0291-0.05978 0.0348-0.1057 0.0558-0.1016 0.046 0.0052-0.0115 0.05562-0.0445 0.1113-0.0752zm-2.232-2.41c0.01391-0.025 0.01249-0.0125-0.0016 0.0264-0.01386 0.039-0.0459 0.0959-0.06953 0.1252-0.03749 0.0486-0.03751 0.046 0.0015-0.0264 0.02512-0.0445 0.05564-0.1002 0.06953-0.1252zm3.218 2.383c0.04176 0.0113 0.08067 0.0279 0.08904 0.0361 0.0067 8e-3 -0.01944 3e-3 -0.06131-8e-3 -0.04179-0.0112-0.08208-0.0291-0.08902-0.0361-0.0084-8e-3 0.01944-3e-3 0.0613 8e-3zm-3.196-3.218c0.0084 0 0.0153 0.0153 0.0153 0.0348-0.0016 0.0264-0.0045 0.0264-0.01528-2e-3 -0.0097-0.0181-0.0084-0.0335 4.8e-5 -0.0333zm-0.02779-0.0834c0.0084 0 0.0153 0.0153 0.0153 0.0348-0.0016 0.0264-0.0045 0.0264-0.01531-2e-3 -0.0097-0.0181-0.0084-0.0335 5.3e-5 -0.0334zm3.418 3.385c0.01813 4e-3 0.04318 0.018 0.05432 0.0291 0.01389 0.0139 0.0068 0.0152-0.01944 6e-3 -0.0542-0.0209-0.07646-0.0431-0.03484-0.0349zm-3.464-3.464c-0.0045-0.018-0.0016-0.0292 0.0067-0.021 0.0067 8e-3 0.01664 0.0306 0.02086 0.0486 0.0045 0.018 0 0.0279-0.0067 0.0209-0.0084-8e-3 -0.01665-0.0306-0.02086-0.0487zm3.56 3.516c0.0084 0 0.02223 0.0112 0.02799 0.0248 0.0068 0.0152-0.0016 0.0153-0.01671 0-0.01692-0.0137-0.02103-0.0263-0.01104-0.025zm-3.609-3.62c-0.0097-0.0264-0.0084-0.0335 0.0052-0.0194 0.01114 0.0112 0.02501 0.0361 0.02926 0.0543 0.0083 0.0417-0.01356 0.0199-0.03477-0.0348zm3.678 3.662c0.0084 0 0.02223 0.0112 0.02805 0.0249 0.0068 0.0152-0.0016 0.0154-0.01671 0-0.01684-0.0137-0.02103-0.0263-0.01104-0.025zm0.1197 0.0807c0.02786 0.0167 0.07514 0.0529 0.1002 0.0808l0.04866 0.0486-0.06536-0.046c-0.03607-0.025-0.08066-0.0612-0.1001-0.0808-0.03215-0.0289-0.0306-0.0306 0.01663-3e-3zm-3.868-3.868c-0.01107-0.025-0.0067-0.032 0.0059-0.0194 0.01114 0.0112 0.02784 0.039 0.03617 0.0614 0.01113 0.025 0.0067 0.032-0.0059 0.0194-0.01107-0.0111-0.02784-0.039-0.0362-0.0612zm12.5 5.313c0.7848-0.79 1.407-1.406 1.383-1.372-0.02363 0.0348-0.7749 0.7916-1.668 1.682-0.8934 0.8902-1.515 1.507-1.383 1.372 0.1304-0.1367 0.882-0.8932 1.668-1.682zm-1.347-3.191c0.03603 0.0308 0.08888 0.0835 0.1182 0.1182 0.03072 0.0359 0.0016 0.0126-0.06394-0.0529-0.06537-0.0655-0.08919-0.0945-0.05422-0.0655zm0.2268 0.1989c0.01527 8e-3 0.05435 0.0207 0.08627 0.0306 0.032 0.0126 0.05428 0.0238 0.05155 0.0264-0.01256 0.0126-0.1238-0.0264-0.1461-0.0486-0.01652-0.0197-0.01652-0.0197 0.0084-8e-3zm-0.3645-0.3729c-0.01949-0.0501 0.01686-0.0137 0.04873 0.0486 0.01948 0.0361 0.01814 0.0403-0.0045 0.0181-0.0153-0.0154-0.03614-0.0446-0.0446-0.0668zm-0.0626-0.1183c-0.0084-0.0416 0.01402-0.0192 0.03477 0.0348 0.0097 0.0264 0.0084 0.0335-0.0052 0.0195-0.01104-0.0111-0.02501-0.036-0.02918-0.0543zm-0.05563-0.1113c-0.0052-0.0306-0.0045-0.0319 0.01391-0.0138 0.01104 0.0112 0.0236 0.0375 0.02784 0.0557 0.0052 0.0306 0.0045 0.032-0.0139 0.0139-0.01104-0.0112-0.0236-0.0376-0.02785-0.0557zm-0.06953-0.1809c-0.0045-0.0179-0.0016-0.0291 0.0067-0.0208 0.0067 8e-3 0.01664 0.0306 0.02086 0.0486 0.0045 0.0181 0 0.0279-0.0067 0.0207-0.0084-8e-3 -0.01665-0.0306-0.02086-0.0487zm-0.03201-0.3019 0.0045-0.2128 0.0029 0.2114c0.0045 0.1962 0.0045 0.2268-0.0067 0.2156-0.0016-2e-3 -0.0016-0.0987-2e-5 -0.2143zm1.259 1.07c0.01671-8e-3 0.03063-8e-3 0.02921-2e-3 0 8e-3 -0.0099 0.0152-0.02401 0.0176-0.03482 0.01-0.03897-3e-3 -0.0059-0.0167zm0.1029-0.0417c0.04447-0.0112 0.03891 4e-5 -0.0097 0.0238-0.01814 8e-3 -0.03204 8e-3 -0.03059 0-0.0016-8e-3 0.01806-0.018 0.04032-0.0236zm0.0974-0.0417c0.04451-0.0113 0.03891 5e-5 -0.0097 0.0238-0.01808 8e-3 -0.03199 8e-3 -0.03058 0-0.0016-8e-3 0.01806-0.018 0.04032-0.0237zm1.754 1.509c0.02228-0.0223 0.02407-0.0177 0.0045 0.0181-0.032 0.0626-0.0682 0.0987-0.04863 0.0486 0.0084-0.0222 0.02926-0.0513 0.04457-0.0668zm-3.14-3.154c0.0067-0.0237 0.01674-0.0389 0.01949-0.036 0.0045 4e-3 0.0016 0.0264-0.0052 0.0501-0.0067 0.0236-0.01674 0.0389-0.01949 0.0361-0.0045-4e-3 -0.0016-0.0264 0.0052-0.0501zm1.594 1.547c0.04447-0.0111 0.03892 4e-5 -0.0098 0.0237-0.01814 8e-3 -0.03199 8e-3 -0.03059-1e-5 -0.0016-8e-3 0.01814-0.0181 0.04032-0.0237zm1.614 1.48c0.0067-8e-3 0.0098 2e-3 0.0059 0.0195-0.0045 0.0181-0.01804 0.0431-0.02921 0.0542-0.02229 0.0223-0.0016-0.0458 0.0237-0.0737zm-1.457-1.551c0.121-0.0543 0.306-0.1141 0.3144-0.1057 0.0045 4e-3 -0.04727 0.025-0.1127 0.0486-0.06539 0.0209-0.16 0.057-0.2115 0.0806-0.05013 0.0223-0.09182 0.0361-0.09181 0.0306 0.0017-8e-3 0.0459-0.0319 0.1015-0.0543zm-1.703-1.65c0.0097-0.0348 0.0237-0.0598 0.02636-0.057 0.0045 4e-3 -0.0029 0.036-0.01256 0.0709-0.01104 0.0361-0.0237 0.0598-0.02635 0.057-0.0045-4e-3 0.0016-0.0348 0.01256-0.0709zm3.214 3.088c0.0067-8e-3 0.01117 3e-3 0.0067 0.0209-0.0045 0.018-0.01391 0.0417-0.02089 0.0486-0.0084 8e-3 -0.01118-3e-3 -0.0067-0.0209 0.0045-0.0181 0.01257-0.0403 0.02089-0.0486zm0.0459-0.1266c0.01664-0.0501 0.03335-0.0863 0.0375-0.0821 0.0067 8e-3 -0.04175 0.1669-0.05706 0.1822-0.01529 0.0154-0.01104-7e-3 0.01945-0.1002zm-3.194-3.164c0.0067-0.0153 0.01408-0.0193 0.01814-8e-3 0.0042 0.0127 0 0.0279-0.0084 0.036-0.01949 0.0194-0.02502 6e-3 -0.0097-0.0292zm0.07513-0.1864c0.01528-0.0238 0.01398-6e-3 -0.0029 0.0389-0.01528 0.0459-0.03477 0.0905-0.04175 0.0974-0.02089 0.0209 0.01529-0.0877 0.04451-0.1364zm0.08348-0.1948c0.01528-0.0238 0.01398-6e-3 -0.0029 0.0389-0.01528 0.0459-0.03477 0.0905-0.04175 0.0974-0.02089 0.021 0.01529-0.0877 0.04451-0.1363zm1.985 2.088c0.0023-3e-3 0.03614-3e-3 0.07653-2e-3l0.07238 6e-3 -0.07235 6e-3c-0.0668 3e-3 -0.08763 2e-3 -0.07649-0.01zm1.131 1.036c0.0045-0.0403 0.0067-0.0403 0.0097-2e-3 0.0052 0.0417 0.0016 0.0598-0.0097 0.0486-0.0029-3e-3 -0.0029-0.025 4e-6 -0.0472zm-3.047-3.264c0.0067-8e-3 0.0098 2e-3 0.0059 0.0195-0.0045 0.018-0.01804 0.0431-0.02921 0.0542-0.02228 0.0223-0.0016-0.0458 0.0237-0.0737zm3.001 2.992c0.0084 0 0.0153 0.0154 0.0153 0.0348-0.0016 0.0264-0.0045 0.0264-0.0153-2e-3 -0.0097-0.0181-0.0084-0.0335-5.4e-5 -0.0333zm-0.7638-0.7248c0.0023-3e-3 0.01944 0 0.03619 8e-3 0.01526 8e-3 0.01929 0.0139 0.0067 0.0181-0.02228 6e-3 -0.05432-0.0154-0.04317-0.0264zm0.7179 0.6455c-0.0045-0.018-0.0016-0.0291 0.0067-0.0209 0.0067 8e-3 0.01665 0.0306 0.02086 0.0486 0.0045 0.0181 0 0.0279-0.0067 0.021-0.0084-8e-3 -0.01665-0.0306-0.02098-0.0487zm-0.5982-0.5982c0.01807 4e-3 0.04041 0.0126 0.04875 0.0209 0.0067 8e-3 -0.0029 0.0113-0.02089 8e-3 -0.01805-4e-3 -0.04177-0.0138-0.04875-0.0209-0.0084-8e-3 0.0029-0.0113 0.02087-8e-3zm-2.294-2.433c0.01256-0.0126 0.01662-6e-3 0.0052 0.0195-0.0084 0.0222-0.02502 0.0501-0.03608 0.0612-0.01256 0.0126-0.01668 7e-3 -0.0059-0.0194 0.0084-0.0224 0.02501-0.0501 0.03614-0.0612zm2.83 2.913c-0.01104-0.025-0.0067-0.032 0.0052-0.0195 0.01104 0.0112 0.02777 0.0389 0.03619 0.0612 0.01115 0.025 0.0067 0.032-0.0052 0.0195-0.01104-0.0111-0.02778-0.0389-0.03614-0.0612zm-0.4174-0.4173c0.02228 8e-3 0.05149 0.0291 0.0668 0.0445 0.02228 0.0223 0.01828 0.0235-0.01804 4e-3 -0.06257-0.032-0.09876-0.0682-0.04875-0.0486zm0.1934 0.1461c0.0346 0.0293 0.09168 0.0864 0.1252 0.1252 0.03358 0.0388 0.0062 0.0134-0.06264-0.0542-0.06953-0.0694-0.0972-0.1004-0.06258-0.071zm-2.536-2.767c0.01256-0.0126 0.01662-6e-3 0.0059 0.0194-0.0084 0.0222-0.02502 0.0501-0.03614 0.0612-0.01256 0.0126-0.01662 6e-3 -0.0059-0.0194 0.0084-0.0223 0.02499-0.0502 0.03608-0.0612zm0.09185-0.1447c0.02229-0.0223 0.02348-0.0182 0.0045 0.018-0.03205 0.0626-0.0682 0.0987-0.04875 0.0486 0.0084-0.0223 0.02926-0.0513 0.04457-0.0667zm0.1113-0.1669c0.02228-0.0223 0.02354-0.0183 0.0045 0.018-0.01391 0.025-0.03903 0.0612-0.05847 0.0806-0.03061 0.0306-0.0322 0.029-0.0045-0.018 0.01671-0.0279 0.04308-0.0655 0.05838-0.0807zm0.1391-0.1948c0.03484-0.0348 0.03604-0.0308-0.0016 0.0264-0.05706 0.0849-0.1141 0.1419-0.07117 0.068 0.01671-0.0279 0.04874-0.071 0.07244-0.0946zm0.2268-0.2852c0.1031-0.1083 0.06403-0.0472-0.05846 0.0918-0.08625 0.0974-0.1029 0.1113-0.05986 0.0514 0.032-0.0431 0.08489-0.1099 0.1183-0.1433zm0.3339-0.3561c0.04713-0.0419 0.01528-8e-3 -0.06813 0.0765-0.08486 0.0849-0.1226 0.1195-0.0849 0.0765 0.03771-0.043 0.1059-0.1111 0.153-0.153zm0.2643-0.2365c0.0249-0.0196 0.01252-2e-3 -0.02505 0.0361-0.03891 0.0389-0.05877 0.0524-0.04447 0.0333 0.01545-0.0206 0.04607-0.0512 0.06953-0.0694zm0.1322-0.1043c0.0207-0.0154 0.01246-2e-3 -0.01806 0.0291-0.02899 0.0321-0.04607 0.0429-0.03756 0.0264 0.01082-0.0171 0.03578-0.0421 0.05565-0.0556zm0.153-0.1168c0.03757-0.0264 0.0682-0.0431 0.06678-0.0361 0 8e-3 -0.02883 0.0351-0.06662 0.0613-0.03757 0.0264-0.06679 0.0416-0.0668 0.0361-0.0016-8e-3 0.02943-0.0347 0.06715-0.0609zm0.1879-0.1349c0.04032-0.0291 0.07376-0.0486 0.07376-0.0403 5.26e-4 7e-3 -0.0332 0.0362-0.07356 0.0683-0.04032 0.0291-0.07377 0.0486-0.0737 0.0404 0-6e-3 0.0332-0.0362 0.07356-0.0683zm0.1948-0.1391c0.04033-0.0291 0.07377-0.0486 0.07369-0.0403 0 6e-3 -0.0332 0.0363-0.07357 0.0683-0.04035 0.0291-0.07375 0.0486-0.07375 0.0403 0-6e-3 0.0332-0.0362 0.07408-0.0678zm0.1739-0.1155c0.02919-0.018 0.05432-0.0291 0.05283-0.0223 0.0016 8e-3 -0.02384 0.029-0.05326 0.047-0.06953 0.0446-0.06952 0.0223 5.3e-5 -0.025zm0.1391-0.0862c0.06962-0.0445 0.06953-0.0223 0 0.025-0.02919 0.018-0.05432 0.0291-0.05289 0.0222-0.0016-8e-3 0.02384-0.029 0.05326-0.047zm0.1322-0.0738c0.02511-0.0166 0.04591-0.0238 0.04734-0.0166-1e-3 8e-3 -0.02206 0.0251-0.04733 0.0389-0.0251 0.0167-0.04591 0.0237-0.04734 0.0167 0.0017-8e-3 0.02206-0.0251 0.04733-0.0389zm2.775 2.72c0.0054 0 0.04871 0.032 0.0946 0.0696 0.05561 0.0446 0.06821 0.0598 0.03756 0.0459-0.04592-0.0236-0.153-0.1169-0.1322-0.1155zm-0.2226-0.2393c-0.01806-0.032 0.0059-0.0111 0.05989 0.0514 0.04863 0.057 0.09044 0.1099 0.09044 0.1154 0.0016 0.0209-0.1195-0.1142-0.1503-0.167zm0.4452 0.3895c0.0542 0.0209 0.07649 0.0432 0.03484 0.0349-0.01814-4e-3 -0.04318-0.018-0.05432-0.0291-0.0139-0.0139-0.0068-0.0152 0.01954-6e-3zm-0.5676-0.5982c-0.02785-0.0584-0.0459-0.1154-0.04319-0.1293 0.0029-0.0139 0.01115-3e-3 0.01964 0.0249 0.0067 0.0264 0.03615 0.0918 0.06121 0.1447 0.02502 0.0529 0.0375 0.0905 0.02776 0.0808-0.01129-8e-3 -0.04032-0.0627-0.06537-0.121zm-2.305-2.341c0.02505-0.0166 0.04591-0.0236 0.04734-0.0166-0.0017 8e-3 -0.02206 0.0252-0.04733 0.0389-0.02511 0.0166-0.04591 0.0238-0.04734 0.0166 0.0017-8e-3 0.02206-0.0251 0.04733-0.0389zm2.955 2.983c0.0023-3e-3 0.01944 1e-5 0.03618 8e-3 0.01534 8e-3 0.01932 0.0139 0.0067 0.0181-0.02228 6e-3 -0.05432-0.0153-0.04317-0.0264zm0.08486 0.0264c0.0023-3e-3 0.02644 2e-3 0.05149 0.01 0.04584 0.0154 0.0445 0.0166 0 0.0111-0.05284-6e-3 -0.06255-0.01-0.05141-0.0209zm-2.92-3.065c0.04447-0.0112 0.03891 3e-5 -0.0097 0.0238-0.01814 8e-3 -0.03204 8e-3 -0.03059-2e-5 -0.0016-8e-3 0.01806-0.018 0.04032-0.0237zm0.103-0.0472c0.02512-0.0112 0.04032-0.0126 0.0306-3e-3 -0.01933 0.0224-0.07654 0.0486-0.07658 0.0348-0.0016-8e-3 0.02089-0.0209 0.04589-0.032zm0.1891-0.078c0.04447-0.0112 0.03891 5e-5 -0.0098 0.0237-0.01814 8e-3 -0.032 8e-3 -0.03059-1e-5 -0.0016-8e-3 0.01814-0.0181 0.04032-0.0237zm1.885 1.791c0.01542-0.0486 0.03201-0.0877 0.0376-0.0876 0.0068 2e-3 -0.0045 0.0431-0.02087 0.0932-0.04033 0.1155-0.05564 0.1113-0.01664-6e-3zm-1.793-1.827c0.02643 2e-3 0.0264 4e-3 -0.0016 0.0154-0.01814 0.01-0.03345 8e-3 -0.03342-2e-5 0-8e-3 0.01529-0.0153 0.03479-0.0153zm3.228 3.172c0.02644 2e-3 0.02642 4e-3 -0.0016 0.0154-0.01814 0.01-0.03342 8e-3 -0.03327 3e-5 0-8e-3 0.01529-0.0154 0.03479-0.0154zm-3.114-3.214c0.08904-0.0306 0.0946-0.0138 0.0059 0.0167-0.03899 0.0139-0.07092 0.0208-0.07235 0.0139-5.27e-4 -7e-3 0.03063-0.0194 0.0667-0.0306zm3.218 3.168c0.03898-8e-3 0.03898-8e-3 0.0084 8e-3 -0.01813 0.01-0.04177 0.025-0.05149 0.032-0.01256 0.0126-0.01517 0.01-0.0067-8e-3 0.0052-0.014 0.02786-0.0279 0.05005-0.0334zm-1.45-1.528c0.0067-8e-3 0.01115 3e-3 0.0067 0.0209-0.0045 0.018-0.01391 0.0417-0.02089 0.0487-0.0084 8e-3 -0.01117-3e-3 -0.0067-0.021 0.0045-0.0181 0.01258-0.0403 0.02085-0.0486zm1.546 1.484c0.04451-0.0113 0.03891 2e-5 -0.0097 0.0238-0.01814 8e-3 -0.03204 8e-3 -0.03061-5e-5 -0.0016-8e-3 0.01806-0.018 0.04032-0.0237zm-3.178-3.166c0.02642 2e-3 0.02641 4e-3 -0.0016 0.0154-0.01814 0.01-0.03342 8e-3 -0.03327 1e-5 0-8e-3 0.01529-0.0154 0.03479-0.0154zm1.674 1.585c0.0067-8e-3 0.01117 3e-3 0.0067 0.0209-0.0045 0.0181-0.01391 0.0417-0.02089 0.0487-0.0084 8e-3 -0.01116-3e-3 -0.0067-0.0209 0.0045-0.018 0.01257-0.0404 0.02085-0.0486zm1.6 1.525c0.01528-8e-3 0.0153 2e-3 0 0.0167-0.01371 0.0168-0.02679 0.0205-0.02512 0.0111 0-8e-3 0.01104-0.0222 0.0249-0.028zm-1.543-1.635c0.0067-8e-3 0.0098 2e-3 0.0052 0.0194-0.0045 0.0181-0.01807 0.0432-0.0292 0.0542-0.02226 0.0223-0.0016-0.046 0.0237-0.0737zm0.04032-0.0988c0.0067-8e-3 0.01116 3e-3 0.0067 0.021-0.0045 0.0181-0.01391 0.0417-0.02087 0.0486-0.0084 8e-3 -0.01115-3e-3 -0.0067-0.0209 0.0045-0.018 0.01257-0.0404 0.02087-0.0486zm0.05707-0.1099c0.0067-8e-3 0.0098 2e-3 0.0059 0.0195-0.0045 0.018-0.01804 0.0431-0.02921 0.0542-0.02228 0.0223-0.0016-0.046 0.0237-0.0737zm0.02228-0.064c0.0067-0.0154 0.01403-0.0192 0.01813-8e-3 0.0042 0.0127 0 0.0279-0.0084 0.036-0.01949 0.0194-0.02502 6e-3 -0.0097-0.0292zm-1.265-1.312c0.0017-2e-3 0.1044-2e-3 0.2282 0l0.2268 4e-3 -0.2268 4e-3c-0.2087 3e-3 -0.2393 3e-3 -0.2282-8e-3zm1.366 0.8737c0.0016-0.0598 0.0045-0.1071 0.0084-0.103 0.0045 4e-3 0.0067 0.057 0.0052 0.1169-0.0016 0.0598-0.0045 0.1072-0.0084 0.103-0.0045-4e-3 -0.0067-0.057-0.0052-0.1169zm-0.8417-0.8417c0.04175 0.0113 0.08073 0.0278 0.08908 0.036 0.0067 8e-3 -0.01949 3e-3 -0.06124-8e-3 -0.04176-0.0113-0.08207-0.0292-0.08902-0.0361-0.0084-8e-3 0.01945-3e-3 0.06119 8e-3zm0.1392 0.0555c0.01814 4e-3 0.04041 0.0126 0.04869 0.0209 0.0067 8e-3 -0.0029 0.0113-0.02087 8e-3 -0.01814-4e-3 -0.04176-0.0138-0.04871-0.0209-0.0084-8e-3 0.0029-0.0112 0.02086-8e-3zm0.0974 0.0417c0.01807 4e-3 0.04311 0.018 0.05432 0.0291 0.01389 0.0139 0.0068 0.0152-0.01954 7e-3 -0.05435-0.0207-0.07653-0.0431-0.03477-0.0348zm0.5565 0.5008c-0.0045-0.0181-0.0016-0.0291 0.0067-0.0209 0.0067 8e-3 0.01665 0.0306 0.02087 0.0487 0.0045 0.018 0 0.0279-0.0067 0.0209-0.0084-8e-3 -0.01671-0.0306-0.02086-0.0486zm-0.4382-0.4382c0.02228 8e-3 0.05011 0.0249 0.06124 0.036 0.01256 0.0126 0.0059 0.0166-0.01944 6e-3 -0.02228-8e-3 -0.05011-0.025-0.06113-0.036-0.01256-0.0126-0.0059-0.0166 0.01944-6e-3zm0.1934 0.1266c-0.0085-0.0136 0.03478 0.0236 0.096 0.0849 0.06122 0.0612 0.1196 0.128 0.1294 0.1488 0.0153 0.0348-0.1864-0.1753-0.2253-0.2338zm-0.07653-0.0542c0.0084 0 0.02228 0.0111 0.02799 0.0248 0.0078 0.0149-0.0016 0.0154-0.0167 0-0.01684-0.0136-0.021-0.0262-0.01104-0.025z" stroke-width=".001967"/>
   <path id="schoolbag" d="m44.52 249h10.45a0.4353 0.4353 0 0 1 0.4353 0.4353v3.917a0.4353 0.4353 0 0 1-0.4353 0.4353h-10.45a0.4353 0.4353 0 0 1-0.4353-0.4353v-3.917a0.4353 0.4353 0 0 1 0.4353-0.4353zm10.88-1.306v-0.8705a0.4353 0.4353 0 0 0-0.4353-0.4353h-10.45a0.4353 0.4353 0 0 0-0.4353 0.4353v0.8705a0.4353 0.4353 0 0 0 0.4353 0.4353h10.45a0.4353 0.4353 0 0 0 0.4353-0.4353zm-14.8 10.01v0.8705a2.176 2.176 0 0 0 2.176 2.176h13.93a2.176 2.176 0 0 0 2.176-2.176v-0.8705a0.4353 0.4353 0 0 0-0.4353-0.4353h-17.41a0.4353 0.4353 0 0 0-0.4353 0.4353zm-0.8705-7.4v-1.741a0.4353 0.4353 0 0 0-0.4353-0.4353h-0.8705a1.306 1.306 0 0 0-1.306 1.306v0.8706a0.4353 0.4353 0 0 0 0.4353 0.4353h1.741a0.4353 0.4353 0 0 0 0.4353-0.4353zm-2.612 1.741v4.788a1.306 1.306 0 0 0 1.306 1.306h0.8705a0.4353 0.4353 0 0 0 0.4353-0.4353v-5.659a0.4353 0.4353 0 0 0-0.4353-0.4353h-1.741a0.4353 0.4353 0 0 0-0.4353 0.4353zm22.63 0v5.659a0.4353 0.4353 0 0 0 0.4353 0.4353h0.8705a1.306 1.306 0 0 0 1.306-1.306v-4.788a0.4353 0.4353 0 0 0-0.4353-0.4353h-1.741a0.4353 0.4353 0 0 0-0.4353 0.4353zm2.612-1.741v-0.8706a1.306 1.306 0 0 0-1.306-1.306h-0.8705a0.4353 0.4353 0 0 0-0.4353 0.4353v1.741a0.4353 0.4353 0 0 0 0.4353 0.4353h1.741a0.4353 0.4353 0 0 0 0.4353-0.4353zm-3.482-6.203v11.86a0.4353 0.4353 0 0 1-0.4353 0.4353h-17.41a0.4353 0.4353 0 0 1-0.4353-0.4353v-11.86a6.42 6.42 0 0 1 6.42-6.42h0.3809a0.1632 0.1632 0 0 0 0.1632-0.1632v-0.7073a2.179 2.179 0 0 1 2.229-2.176c1.188 0.0282 2.124 1.028 2.124 2.217v0.6664a0.1632 0.1632 0 0 0 0.1632 0.1632h0.3809a6.42 6.42 0 0 1 6.42 6.42zm-10.45-6.583a0.1632 0.1632 0 0 0 0.1632 0.1632h2.285a0.1632 0.1632 0 0 0 0.1632-0.1632v-0.6776c0-0.7306-0.5978-1.348-1.328-1.336a1.307 1.307 0 0 0-1.283 1.306zm-0.4353 4.081a1.741 1.741 0 1 0 1.741-1.741 1.741 1.741 0 0 0-1.741 1.741zm8.27 5.223a1.307 1.307 0 0 0-1.306-1.306h-10.45a1.307 1.307 0 0 0-1.306 1.306v6.529a1.307 1.307 0 0 0 1.306 1.306h10.45a1.307 1.307 0 0 0 1.306-1.306z" stroke-width=".05441"/>
  </g>
 </g>
</svg>
